<?xml version="1.0" encoding="UTF-8"?><svg id="uuid-13ae8aa5-a1be-44ad-a21c-ab451d6f8e34" xmlns="http://www.w3.org/2000/svg" viewBox="0 0 1440 163.49"><defs><style>.uuid-5a6b7d75-d2b6-48a0-9523-91118bf970a4{opacity:.5;}.uuid-d2d00f05-e0cf-441e-aa0d-788c7bb28e93{fill:#033238;}.uuid-3761c119-e425-4dd5-9b3e-7681c233693c{fill:#022c30;opacity:.05;}.uuid-9f6756f9-f0c7-4127-b1a6-84081a39e3c2{fill:#d5dddd;}</style></defs><path class="uuid-d2d00f05-e0cf-441e-aa0d-788c7bb28e93" d="m0,162.42v-71.5c0-12.1,9.79-21.9,21.87-21.9h29.18c1.18,0,2.16.97,2.16,2.17v41.14c0,5.48-4.45,9.94-9.95,9.94H13c-.64,0-1.17-.53-1.17-1.18v-30.28c0-5.48,4.45-9.94,9.95-9.94h15.83c1.04,0,1.97.42,2.65,1.1.68.68,1.1,1.61,1.1,2.65,0,2.06-1.68,3.73-3.75,3.73h-15.85c-1.36,0-2.44,1.1-2.44,2.45v22.81c0,.64.51,1.18,1.17,1.18h22.79c1.35,0,2.44-1.09,2.44-2.45v-34.66c0-.65-.54-1.18-1.17-1.18h-22.79c-7.88,0-14.29,6.41-14.29,14.3v33.65c0,1.21.99,2.2,2.18,2.2h33.61c7.9,0,14.31-6.42,14.31-14.32v-39.67c.02-.99.44-1.89,1.09-2.53.7-.69,1.62-1.11,2.66-1.11h1378.68v93.4H0Z"/><path class="uuid-9f6756f9-f0c7-4127-b1a6-84081a39e3c2" d="m0,131.98v-41.06c0-12.1,9.79-21.9,21.87-21.9h29.18c1.18,0,2.16.97,2.16,2.17v41.14c0,5.48-4.45,9.94-9.95,9.94H13c-.64,0-1.17-.53-1.17-1.18v-30.28c0-5.48,4.45-9.94,9.95-9.94h15.83c1.04,0,1.97.42,2.65,1.1.68.68,1.1,1.61,1.1,2.65,0,2.06-1.68,3.73-3.75,3.73h-15.85c-1.36,0-2.44,1.1-2.44,2.45v22.81c0,.64.51,1.18,1.17,1.18h22.79c1.35,0,2.44-1.09,2.44-2.45v-34.66c0-.65-.54-1.18-1.17-1.18h-22.79c-7.88,0-14.29,6.41-14.29,14.3v33.65c0,1.21.99,2.2,2.18,2.2h33.61c7.9,0,14.31-6.42,14.31-14.32v-39.67c.02-.99.44-1.89,1.09-2.53.7-.69,1.62-1.11,2.66-1.11h1378.68v7.53H65.07v35.73c0,12.08-9.79,21.87-21.85,21.87H2.17c-1.19,0-2.17-.97-2.17-2.17Z"/><g class="uuid-5a6b7d75-d2b6-48a0-9523-91118bf970a4"><circle class="uuid-3761c119-e425-4dd5-9b3e-7681c233693c" cx="55.42" cy="66.14" r="2.14"/><circle class="uuid-3761c119-e425-4dd5-9b3e-7681c233693c" cx="78.86" cy="66.14" r="2.14"/><path class="uuid-3761c119-e425-4dd5-9b3e-7681c233693c" d="m69.53,21.91v39.52c0,2.08,1.68,3.77,3.76,3.77h0c2.08,0,3.76-1.69,3.76-3.77v-3.72h0V21.85c0-7.91,6.41-14.33,14.32-14.33h33.65c1.21,0,2.19.98,2.19,2.19v33.67c0,7.91-6.41,14.32-14.31,14.32h-22.81c-.65,0-1.17-.52-1.17-1.17V21.84c0-1.35,1.09-2.45,2.44-2.45h22.82c.65,0,1.17.53,1.17,1.17v22.83c0,1.35-1.09,2.45-2.44,2.45h-15.87c-2.07,0-3.75,1.68-3.75,3.75h0c0,2.07,1.68,3.75,3.75,3.75h15.85c5.5,0,9.95-4.46,9.95-9.96V13.06c0-.65-.52-1.17-1.17-1.17h-30.29c-5.5,0-9.95,4.46-9.95,9.96v23.97h0v17.2c0,1.2.97,2.17,2.17,2.17h29.2c12.09,0,21.89-9.81,21.89-21.91V2.19c0-1.21-.98-2.19-2.19-2.19h-41.07c-12.09,0-21.9,9.81-21.9,21.91Z"/><path class="uuid-3761c119-e425-4dd5-9b3e-7681c233693c" d="m65.15,21.95v39.52c0,2.08-1.68,3.77-3.76,3.77h0c-2.08,0-3.76-1.69-3.76-3.77v-3.72h0V21.88c0-7.91-6.41-14.33-14.32-14.33H9.67c-1.21,0-2.19.98-2.19,2.19v33.67c0,7.91,6.41,14.32,14.31,14.32h22.81c.65,0,1.17-.52,1.17-1.17V21.87c0-1.35-1.09-2.45-2.44-2.45h-22.82c-.65,0-1.17.53-1.17,1.17v22.83c0,1.35,1.09,2.45,2.44,2.45h15.87c2.07,0,3.75,1.68,3.75,3.75h0c0,2.07-1.68,3.75-3.75,3.75h-15.85c-5.5,0-9.95-4.46-9.95-9.96V13.1c0-.65.52-1.17,1.17-1.17h30.29c5.5,0,9.95,4.46,9.95,9.96v23.97s0,0,0,0v17.2c0,1.2-.97,2.17-2.17,2.17h-29.2C9.8,65.24,0,55.43,0,43.33V2.22C0,1.02.98.04,2.19.04h41.07c12.09,0,21.9,9.81,21.9,21.91Z"/><path class="uuid-3761c119-e425-4dd5-9b3e-7681c233693c" d="m69.53,112.28v-39.52c0-2.08,1.68-3.77,3.76-3.77h0c2.08,0,3.76,1.69,3.76,3.77v3.72s0,0,0,0v35.86c0,7.91,6.41,14.33,14.32,14.33h33.65c1.21,0,2.19-.98,2.19-2.19v-33.67c0-7.91-6.41-14.32-14.31-14.32h-22.81c-.65,0-1.17.52-1.17,1.17v34.7c0,1.35,1.09,2.45,2.44,2.45h22.82c.65,0,1.17-.53,1.17-1.17v-22.83c0-1.35-1.09-2.45-2.44-2.45h-15.87c-2.07,0-3.75-1.68-3.75-3.75h0c0-2.07,1.68-3.75,3.75-3.75h15.85c5.5,0,9.95,4.46,9.95,9.96v30.31c0,.65-.52,1.17-1.17,1.17h-30.29c-5.5,0-9.95-4.46-9.95-9.96v-23.97h0s0-17.2,0-17.2c0-1.2.97-2.17,2.17-2.17h29.2c12.09,0,21.89,9.81,21.89,21.91v41.1c0,1.21-.98,2.19-2.19,2.19h-41.07c-12.09,0-21.9-9.81-21.9-21.91Z"/></g></svg>