<?xml version="1.0" encoding="UTF-8"?><svg id="uuid-2b885f8e-6c5c-45e3-9c88-187db35ad4f2" xmlns="http://www.w3.org/2000/svg" viewBox="0 0 1440 163.49"><defs><style>.uuid-79d0555a-204e-43f4-9544-8d1100ce13ba{opacity:.5;}.uuid-d5f2b67e-d696-4481-bb6b-0567ac26da23{fill:#033238;}.uuid-67317236-ce3c-4793-85f3-63daa1e0d51d{fill:#022c30;opacity:.05;}.uuid-8437105d-f3c7-4ad6-835d-0673e4dd7ddf{fill:#d5dddd;}</style></defs><path class="uuid-d5f2b67e-d696-4481-bb6b-0567ac26da23" d="m1440,0v71.5c0,12.1-9.79,21.9-21.87,21.9h-29.18c-1.18,0-2.16-.97-2.16-2.17v-41.14c0-5.48,4.45-9.94,9.95-9.94h30.26c.64,0,1.17.53,1.17,1.18v30.28c0,5.48-4.45,9.94-9.95,9.94h-15.83c-1.04,0-1.97-.42-2.65-1.1-.68-.68-1.1-1.61-1.1-2.65,0-2.06,1.68-3.73,3.75-3.73h15.85c1.36,0,2.44-1.1,2.44-2.45v-22.81c0-.64-.51-1.18-1.17-1.18h-22.79c-1.35,0-2.44,1.09-2.44,2.45v34.66c0,.65.54,1.18,1.17,1.18h22.79c7.88,0,14.29-6.41,14.29-14.3v-33.65c0-1.21-.99-2.2-2.18-2.2h-33.61c-7.9,0-14.31,6.42-14.31,14.32v39.67c-.02.99-.44,1.89-1.09,2.53-.7.69-1.62,1.11-2.66,1.11H0V0h1440Z"/><path class="uuid-8437105d-f3c7-4ad6-835d-0673e4dd7ddf" d="m1440,30.44v41.06c0,12.1-9.79,21.9-21.87,21.9h-29.18c-1.18,0-2.16-.97-2.16-2.17v-41.14c0-5.48,4.45-9.94,9.95-9.94h30.26c.64,0,1.17.53,1.17,1.18v30.28c0,5.48-4.45,9.94-9.95,9.94h-15.83c-1.04,0-1.97-.42-2.65-1.1-.68-.68-1.1-1.61-1.1-2.65,0-2.06,1.68-3.73,3.75-3.73h15.85c1.36,0,2.44-1.1,2.44-2.45v-22.81c0-.64-.51-1.18-1.17-1.18h-22.79c-1.35,0-2.44,1.09-2.44,2.45v34.66c0,.65.54,1.18,1.17,1.18h22.79c7.88,0,14.29-6.41,14.29-14.3v-33.65c0-1.21-.99-2.2-2.18-2.2h-33.61c-7.9,0-14.31,6.42-14.31,14.32v39.67c-.02.99-.44,1.89-1.09,2.53-.7.69-1.62,1.11-2.66,1.11H0v-7.53h1374.93v-35.73c0-12.08,9.79-21.87,21.85-21.87h41.05c1.19,0,2.17.97,2.17,2.17Z"/><g class="uuid-79d0555a-204e-43f4-9544-8d1100ce13ba"><circle class="uuid-67317236-ce3c-4793-85f3-63daa1e0d51d" cx="1384.58" cy="96.28" r="2.14"/><circle class="uuid-67317236-ce3c-4793-85f3-63daa1e0d51d" cx="1361.14" cy="96.28" r="2.14"/><path class="uuid-67317236-ce3c-4793-85f3-63daa1e0d51d" d="m1370.47,140.51v-39.52c0-2.08-1.68-3.77-3.76-3.77h0c-2.08,0-3.76,1.69-3.76,3.77v3.72h0v35.86c0,7.91-6.41,14.33-14.32,14.33h-33.65c-1.21,0-2.19-.98-2.19-2.19v-33.67c0-7.91,6.41-14.32,14.31-14.32h22.81c.65,0,1.17.52,1.17,1.17v34.7c0,1.35-1.09,2.45-2.44,2.45h-22.82c-.65,0-1.17-.53-1.17-1.17v-22.83c0-1.35,1.09-2.45,2.44-2.45h15.87c2.07,0,3.75-1.68,3.75-3.75h0c0-2.07-1.68-3.75-3.75-3.75h-15.85c-5.5,0-9.95,4.46-9.95,9.96v30.31c0,.65.52,1.17,1.17,1.17h30.29c5.5,0,9.95-4.46,9.95-9.96v-23.97h0v-17.2c0-1.2-.97-2.17-2.17-2.17h-29.2c-12.09,0-21.89,9.81-21.89,21.91v41.1c0,1.21.98,2.19,2.19,2.19h41.07c12.09,0,21.9-9.81,21.9-21.91Z"/><path class="uuid-67317236-ce3c-4793-85f3-63daa1e0d51d" d="m1374.85,140.47v-39.52c0-2.08,1.68-3.77,3.76-3.77h0c2.08,0,3.76,1.69,3.76,3.77v3.72h0v35.86c0,7.91,6.41,14.33,14.32,14.33h33.65c1.21,0,2.19-.98,2.19-2.19v-33.67c0-7.91-6.41-14.32-14.31-14.32h-22.81c-.65,0-1.17.52-1.17,1.17v34.7c0,1.35,1.09,2.45,2.44,2.45h22.82c.65,0,1.17-.53,1.17-1.17v-22.83c0-1.35-1.09-2.45-2.44-2.45h-15.87c-2.07,0-3.75-1.68-3.75-3.75h0c0-2.07,1.68-3.75,3.75-3.75h15.85c5.5,0,9.95,4.46,9.95,9.96v30.31c0,.65-.52,1.17-1.17,1.17h-30.29c-5.5,0-9.95-4.46-9.95-9.96v-23.97s0,0,0,0v-17.2c0-1.2.97-2.17,2.17-2.17h29.2c12.09,0,21.89,9.81,21.89,21.91v41.1c0,1.21-.98,2.19-2.19,2.19h-41.07c-12.09,0-21.9-9.81-21.9-21.91Z"/><path class="uuid-67317236-ce3c-4793-85f3-63daa1e0d51d" d="m1370.47,50.15v39.52c0,2.08-1.68,3.77-3.76,3.77h0c-2.08,0-3.76-1.69-3.76-3.77v-3.72s0,0,0,0v-35.86c0-7.91-6.41-14.33-14.32-14.33h-33.65c-1.21,0-2.19.98-2.19,2.19v33.67c0,7.91,6.41,14.32,14.31,14.32h22.81c.65,0,1.17-.52,1.17-1.17v-34.7c0-1.35-1.09-2.45-2.44-2.45h-22.82c-.65,0-1.17.53-1.17,1.17v22.83c0,1.35,1.09,2.45,2.44,2.45h15.87c2.07,0,3.75,1.68,3.75,3.75h0c0,2.07-1.68,3.75-3.75,3.75h-15.85c-5.5,0-9.95-4.46-9.95-9.96v-30.31c0-.65.52-1.17,1.17-1.17h30.29c5.5,0,9.95,4.46,9.95,9.96v23.97h0s0,17.2,0,17.2c0,1.2-.97,2.17-2.17,2.17h-29.2c-12.09,0-21.89-9.81-21.89-21.91V30.42c0-1.21.98-2.19,2.19-2.19h41.07c12.09,0,21.9,9.81,21.9,21.91Z"/></g><g><g><path class="uuid-8437105d-f3c7-4ad6-835d-0673e4dd7ddf" d="m90.44,65.23h-2.66v-13.95h10.63c1.77,0,2.66.93,2.66,2.79v2.79c0,1.86-.89,2.79-2.66,2.79h-7.97v5.58Zm7.97-8.37v-2.79h-7.97v2.79h7.97Z"/><path class="uuid-8437105d-f3c7-4ad6-835d-0673e4dd7ddf" d="m110.86,59.65l-1.7-1.79v7.37h-2.66v-13.95h10.63c1.77,0,2.66.93,2.66,2.79v2.79c0,1.86-.87,2.79-2.62,2.79h-2.7l5.31,5.58h-3.61l-5.31-5.58Zm-1.7-5.58v2.79h7.97v-2.79h-7.97Z"/><path class="uuid-8437105d-f3c7-4ad6-835d-0673e4dd7ddf" d="m127.89,51.29h7.97c1.77,0,2.66.93,2.66,2.79v8.37c0,1.86-.89,2.79-2.66,2.79h-7.97c-1.77,0-2.66-.93-2.66-2.79v-8.37c0-1.86.89-2.79,2.66-2.79Zm0,2.79v8.37h7.97v-8.37h-7.97Z"/><path class="uuid-8437105d-f3c7-4ad6-835d-0673e4dd7ddf" d="m146.61,65.23h-2.66v-13.95h10.63c1.77,0,2.66.93,2.66,2.79v2.79c0,1.86-.89,2.79-2.66,2.79h-7.97v5.58Zm7.97-8.37v-2.79h-7.97v2.79h7.97Z"/><path class="uuid-8437105d-f3c7-4ad6-835d-0673e4dd7ddf" d="m175.96,51.29v2.79h-13.28v-2.79h13.28Zm0,5.58v2.79h-13.28v-2.79h13.28Zm0,5.58v2.79h-13.28v-2.79h13.28Z"/><path class="uuid-8437105d-f3c7-4ad6-835d-0673e4dd7ddf" d="m185.76,59.65l-1.7-1.79v7.37h-2.66v-13.95h10.63c1.77,0,2.66.93,2.66,2.79v2.79c0,1.86-.87,2.79-2.62,2.79h-2.7l5.31,5.58h-3.61l-5.31-5.58Zm-1.7-5.58v2.79h7.97v-2.79h-7.97Z"/><path class="uuid-8437105d-f3c7-4ad6-835d-0673e4dd7ddf" d="m200.13,51.29h13.28v2.79h-5.31v11.16h-2.66v-11.16h-5.31v-2.79Z"/><path class="uuid-8437105d-f3c7-4ad6-835d-0673e4dd7ddf" d="m221.51,51.29v13.95h-2.66v-13.95h2.66Z"/><path class="uuid-8437105d-f3c7-4ad6-835d-0673e4dd7ddf" d="m240.23,51.29v2.79h-13.28v-2.79h13.28Zm0,5.58v2.79h-13.28v-2.79h13.28Zm0,5.58v2.79h-13.28v-2.79h13.28Z"/><path class="uuid-8437105d-f3c7-4ad6-835d-0673e4dd7ddf" d="m258.96,54.08h-10.63v2.79h7.97c1.77,0,2.66.93,2.66,2.79v2.79c0,1.86-.89,2.79-2.66,2.79h-10.63v-2.79h10.63v-2.79h-7.97c-1.77,0-2.66-.93-2.66-2.79v-2.79c0-1.86.89-2.79,2.66-2.79h10.63v2.79Z"/></g><g><g><path class="uuid-8437105d-f3c7-4ad6-835d-0673e4dd7ddf" d="m51.19,21.86v16.98c0,.89-.72,1.62-1.62,1.62h0c-.89,0-1.62-.72-1.62-1.62v-1.6h0v-15.4c0-3.4-2.75-6.15-6.15-6.15h-14.45c-.52,0-.94.42-.94.94v14.46c0,3.4,2.75,6.15,6.15,6.15h9.8c.28,0,.5-.23.5-.5v-14.9c0-.58-.47-1.05-1.05-1.05h-9.8c-.28,0-.5.23-.5.5v9.81c0,.58.47,1.05,1.05,1.05h6.82c.89,0,1.61.72,1.61,1.61h0c0,.89-.72,1.61-1.61,1.61h-6.81c-2.36,0-4.27-1.92-4.27-4.28v-13.02c0-.28.22-.5.5-.5h13.01c2.36,0,4.27,1.92,4.27,4.28v10.3s0,0,0,0v7.39c0,.52-.42.93-.93.93h-12.54c-5.19,0-9.4-4.21-9.4-9.41V13.39c0-.52.42-.94.94-.94h17.64c5.19,0,9.4,4.21,9.4,9.41Z"/><path class="uuid-8437105d-f3c7-4ad6-835d-0673e4dd7ddf" d="m53.07,21.88v16.98c0,.89.72,1.62,1.62,1.62h0c.89,0,1.62-.72,1.62-1.62v-1.6h0v-15.4c0-3.4,2.75-6.15,6.15-6.15h14.45c.52,0,.94.42.94.94v14.46c0,3.4-2.75,6.15-6.15,6.15h-9.8c-.28,0-.5-.23-.5-.5v-14.9c0-.58.47-1.05,1.05-1.05h9.8c.28,0,.5.23.5.5v9.81c0,.58-.47,1.05-1.05,1.05h-6.82c-.89,0-1.61.72-1.61,1.61h0c0,.89.72,1.61,1.61,1.61h6.81c2.36,0,4.27-1.92,4.27-4.28v-13.02c0-.28-.22-.5-.5-.5h-13.01c-2.36,0-4.27,1.92-4.27,4.28v10.3h0v7.39c0,.52.42.93.93.93h12.54c5.19,0,9.4-4.21,9.4-9.41V13.41c0-.52-.42-.94-.94-.94h-17.64c-5.19,0-9.4,4.21-9.4,9.41Z"/><circle class="uuid-8437105d-f3c7-4ad6-835d-0673e4dd7ddf" cx="57.25" cy="41.44" r=".92"/><circle class="uuid-8437105d-f3c7-4ad6-835d-0673e4dd7ddf" cx="47.18" cy="41.44" r=".92"/><path class="uuid-8437105d-f3c7-4ad6-835d-0673e4dd7ddf" d="m51.19,60.95v-16.98c0-.89-.72-1.62-1.62-1.62h0c-.89,0-1.62.72-1.62,1.62v1.6h0v15.4c0,3.4-2.75,6.15-6.15,6.15h-14.45c-.52,0-.94-.42-.94-.94v-14.46c0-3.4,2.75-6.15,6.15-6.15h9.8c.28,0,.5.23.5.5v14.9c0,.58-.47,1.05-1.05,1.05h-9.8c-.28,0-.5-.23-.5-.5v-9.81c0-.58.47-1.05,1.05-1.05h6.82c.89,0,1.61-.72,1.61-1.61h0c0-.89-.72-1.61-1.61-1.61h-6.81c-2.36,0-4.27,1.92-4.27,4.28v13.02c0,.28.22.5.5.5h13.01c2.36,0,4.27-1.92,4.27-4.28v-10.3h0v-7.39c0-.52-.42-.93-.93-.93h-12.54c-5.19,0-9.4,4.21-9.4,9.41v17.65c0,.52.42.94.94.94h17.64c5.19,0,9.4-4.21,9.4-9.41Z"/><path class="uuid-8437105d-f3c7-4ad6-835d-0673e4dd7ddf" d="m53.07,60.94v-16.98c0-.89.72-1.62,1.62-1.62h0c.89,0,1.62.72,1.62,1.62v1.6h0v15.4c0,3.4,2.75,6.15,6.15,6.15h14.45c.52,0,.94-.42.94-.94v-14.46c0-3.4-2.75-6.15-6.15-6.15h-9.8c-.28,0-.5.23-.5.5v14.9c0,.58.47,1.05,1.05,1.05h9.8c.28,0,.5-.23.5-.5v-9.81c0-.58-.47-1.05-1.05-1.05h-6.82c-.89,0-1.61-.72-1.61-1.61h0c0-.89.72-1.61,1.61-1.61h6.81c2.36,0,4.27,1.92,4.27,4.28v13.02c0,.28-.22.5-.5.5h-13.01c-2.36,0-4.27-1.92-4.27-4.28v-10.3s0,0,0,0v-7.39c0-.52.42-.93.93-.93h12.54c5.19,0,9.4,4.21,9.4,9.41v17.65c0,.52-.42.94-.94.94h-17.64c-5.19,0-9.4-4.21-9.4-9.41Z"/></g><g><path class="uuid-8437105d-f3c7-4ad6-835d-0673e4dd7ddf" d="m91.36,36.31h-3.57v-18.73h14.27c2.38,0,3.57,1.25,3.57,3.75v3.74c0,2.5-1.19,3.75-3.57,3.75h-10.7v7.49Zm10.7-11.24v-3.74h-10.7v3.74h10.7Z"/><path class="uuid-8437105d-f3c7-4ad6-835d-0673e4dd7ddf" d="m115.53,28.82l-2.29-2.4v9.89h-3.57v-18.73h14.27c2.38,0,3.57,1.25,3.57,3.75v3.74c0,2.5-1.17,3.75-3.51,3.75h-3.62l7.13,7.49h-4.85l-7.13-7.49Zm-2.29-7.49v3.74h10.7v-3.74h-10.7Z"/><path class="uuid-8437105d-f3c7-4ad6-835d-0673e4dd7ddf" d="m135.13,17.59h10.7c2.38,0,3.57,1.25,3.57,3.75v11.23c0,2.5-1.19,3.75-3.57,3.75h-10.7c-2.38,0-3.57-1.25-3.57-3.75v-11.23c0-2.5,1.19-3.75,3.57-3.75Zm0,3.75v11.23h10.7v-11.23h-10.7Z"/><path class="uuid-8437105d-f3c7-4ad6-835d-0673e4dd7ddf" d="m153.45,17.59h17.83v3.75h-14.27v3.74h14.27v3.75h-14.27v7.49h-3.57v-18.73Z"/><path class="uuid-8437105d-f3c7-4ad6-835d-0673e4dd7ddf" d="m178.9,17.59h10.7c2.38,0,3.57,1.25,3.57,3.75v11.23c0,2.5-1.19,3.75-3.57,3.75h-10.7c-2.38,0-3.57-1.25-3.57-3.75v-11.23c0-2.5,1.19-3.75,3.57-3.75Zm0,3.75v11.23h10.7v-11.23h-10.7Z"/><path class="uuid-8437105d-f3c7-4ad6-835d-0673e4dd7ddf" d="m211.49,36.31h-10.7c-2.38,0-3.57-1.25-3.57-3.75v-14.98h3.57v14.98h10.7v-14.98h3.57v14.98c0,2.5-1.19,3.75-3.57,3.75Z"/><path class="uuid-8437105d-f3c7-4ad6-835d-0673e4dd7ddf" d="m222.49,36.31h-3.74v-18.69h3.37l11.58,12.9v-12.9h3.74v18.69h-3.34l-11.61-12.9v12.9Z"/><path class="uuid-8437105d-f3c7-4ad6-835d-0673e4dd7ddf" d="m241.13,36.31v-18.73h14.27c2.38,0,3.57,1.25,3.57,3.75v11.23c0,2.5-1.19,3.75-3.57,3.75h-14.27Zm3.57-3.75h10.7v-11.23h-10.7v11.23Z"/></g></g></g></svg>