<svg width="192" height="47" viewBox="0 0 192 47" fill="none" xmlns="http://www.w3.org/2000/svg">
<path d="M22.7862 7.63829V21.4174C22.7862 22.141 22.199 22.7324 21.4729 22.7324C20.7469 22.7324 20.1597 22.1473 20.1597 21.4174V20.1213V7.61312C20.1597 4.8573 17.9183 2.6174 15.1529 2.6174H3.37784C2.95482 2.6174 2.61388 2.95716 2.61388 3.37871V15.1193C2.61388 17.8751 4.85525 20.115 7.62065 20.115H15.5949C15.8222 20.115 16.0053 19.9325 16.0053 19.706V7.61312C16.0053 7.14123 15.6201 6.76372 15.1529 6.76372H7.17238C6.94508 6.76372 6.76199 6.94618 6.76199 7.17269V15.1319C6.76199 15.6037 7.14712 15.9876 7.61434 15.9876H13.1641C13.8902 15.9876 14.471 16.5727 14.471 17.2963C14.471 18.0198 13.8839 18.605 13.1641 18.605H7.62065C5.69497 18.605 4.1418 17.0509 4.1418 15.1319V4.55529C4.1418 4.32878 4.32489 4.14632 4.55219 4.14632H15.1466C17.0723 4.14632 18.6255 5.7004 18.6255 7.61941V15.975V21.9711C18.6255 22.3863 18.2845 22.7261 17.8678 22.7261H7.65853C3.42835 22.7261 0 19.3096 0 15.0878V0.761312C0 0.339759 0.340941 0 0.763959 0H15.1277C19.3578 0 22.7862 3.41647 22.7862 7.63829Z" fill="#002D31"/>
<path d="M24.3141 7.65086V21.43C24.3141 22.1535 24.9013 22.745 25.6273 22.745C26.3534 22.745 26.9406 22.1598 26.9406 21.43V20.1339V7.62569C26.9406 4.86987 29.182 2.62998 31.9474 2.62998H43.7161C44.1391 2.62998 44.4801 2.96974 44.4801 3.39129V15.1318C44.4801 17.8877 42.2387 20.1276 39.4733 20.1276H31.4991C31.2718 20.1276 31.0887 19.9451 31.0887 19.7186V7.62569C31.0887 7.1538 31.4738 6.77629 31.9411 6.77629H39.9216C40.1489 6.77629 40.332 6.95876 40.332 7.18526V15.1444C40.332 15.6163 39.9468 16.0001 39.4796 16.0001H33.9299C33.2038 16.0001 32.6229 16.5853 32.6229 17.3088C32.6229 18.0324 33.2101 18.6175 33.9299 18.6175H39.4733C41.399 18.6175 42.9522 17.0634 42.9522 15.1444V4.56786C42.9522 4.34136 42.7691 4.15889 42.5418 4.15889H31.9474C30.0217 4.15889 28.4685 5.71297 28.4685 7.63198V15.9875V21.9837C28.4685 22.3989 28.8095 22.7387 29.2262 22.7387H39.4417C43.6719 22.7387 47.1003 19.3222 47.1003 15.1004V0.773885C47.1003 0.352332 46.7593 0.0125732 46.3363 0.0125732H31.9726C27.7424 0.0125732 24.3141 3.42904 24.3141 7.65086Z" fill="#002D31"/>
<path d="M27.7235 24.2802C28.1384 24.2802 28.4748 23.945 28.4748 23.5314C28.4748 23.1179 28.1384 22.7827 27.7235 22.7827C27.3085 22.7827 26.9722 23.1179 26.9722 23.5314C26.9722 23.945 27.3085 24.2802 27.7235 24.2802Z" fill="#002D31"/>
<path d="M19.522 24.2802C19.937 24.2802 20.2734 23.945 20.2734 23.5314C20.2734 23.1179 19.937 22.7827 19.522 22.7827C19.1071 22.7827 18.7707 23.1179 18.7707 23.5314C18.7707 23.945 19.1071 24.2802 19.522 24.2802Z" fill="#002D31"/>
<path d="M22.7862 39.3617V25.5826C22.7862 24.859 22.199 24.2676 21.4729 24.2676C20.7469 24.2676 20.1597 24.8527 20.1597 25.5826V26.8787V39.3806C20.1597 42.1364 17.9183 44.3763 15.1529 44.3763H3.37784C2.95482 44.3763 2.61388 44.0365 2.61388 43.615V31.8744C2.61388 29.1186 4.85525 26.8787 7.62065 26.8787H15.5949C15.8222 26.8787 16.0053 27.0612 16.0053 27.2877V39.3806C16.0053 39.8525 15.6201 40.23 15.1529 40.23H7.17238C6.94508 40.23 6.76199 40.0475 6.76199 39.821V31.8618C6.76199 31.3899 7.14712 31.0061 7.61434 31.0061H13.1641C13.8902 31.0061 14.471 30.421 14.471 29.6974C14.471 28.9739 13.8839 28.3887 13.1641 28.3887H7.62065C5.69497 28.3887 4.1418 29.9428 4.1418 31.8618V42.4258C4.1418 42.6523 4.32489 42.8348 4.55219 42.8348H15.1466C17.0723 42.8348 18.6255 41.2807 18.6255 39.3617V31.0061V25.01C18.6255 24.5948 18.2845 24.255 17.8678 24.255H7.65853C3.42835 24.2739 0 27.6903 0 31.9122V46.2387C0 46.6602 0.340941 47 0.763959 47H15.1277C19.3578 47 22.7862 43.5835 22.7862 39.3617Z" fill="#002D31"/>
<path d="M24.3204 39.3491V25.57C24.3204 24.8464 24.9076 24.255 25.6337 24.255C26.3598 24.255 26.9469 24.8402 26.9469 25.57V26.8661V39.368C26.9469 42.1238 29.1883 44.3637 31.9537 44.3637H43.7225C44.1455 44.3637 44.4864 44.024 44.4864 43.6024V31.8618C44.4864 29.106 42.2451 26.8661 39.4797 26.8661H31.5054C31.2781 26.8661 31.095 27.0486 31.095 27.2751V39.368C31.095 39.8399 31.4802 40.2174 31.9474 40.2174H39.9279C40.1552 40.2174 40.3383 40.0349 40.3383 39.8084V31.8493C40.3383 31.3774 39.9532 30.9936 39.486 30.9936H33.9362C33.2101 30.9936 32.6293 30.4084 32.6293 29.6849C32.6293 28.9613 33.2165 28.3762 33.9362 28.3762H39.4797C41.4053 28.3762 42.9585 29.9302 42.9585 31.8493V42.4133C42.9585 42.6398 42.7754 42.8222 42.5481 42.8222H31.9537C30.028 42.8222 28.4749 41.2681 28.4749 39.3491V30.9936V24.9975C28.4749 24.5822 28.8158 24.2424 29.2325 24.2424H39.4481C43.6783 24.2424 47.1066 27.6589 47.1066 31.8807V46.2072C47.1066 46.6288 46.7657 46.9685 46.3427 46.9685H31.979C27.7488 46.9685 24.3204 43.5521 24.3204 39.3302V39.3491Z" fill="#002D31"/>
<path d="M54.7525 42.8348H52.5869V31.5157H61.243C62.6825 31.5157 63.4086 32.2708 63.4086 33.7808V36.0459C63.4086 37.5559 62.6889 38.3109 61.243 38.3109H54.7525V42.841V42.8348ZM61.243 36.0459V33.7808H54.7525V36.0459H61.243Z" fill="#002D31"/>
<path d="M71.3829 38.311L69.9939 36.8639V42.8411H67.8282V31.5221H76.4843C77.9239 31.5221 78.65 32.2771 78.65 33.7872V36.0522C78.65 37.5623 77.9428 38.3173 76.5222 38.3173H74.3251L78.65 42.8474H75.7078L71.3829 38.3173V38.311ZM69.9939 33.7809V36.0459H76.4843V33.7809H69.9939Z" fill="#002D31"/>
<path d="M85.2478 31.5157H91.7383C93.1778 31.5157 93.9039 32.2708 93.9039 33.7808V40.576C93.9039 42.086 93.1841 42.841 91.7383 42.841H85.2478C83.8082 42.841 83.0822 42.086 83.0822 40.576V33.7808C83.0822 32.2708 83.8019 31.5157 85.2478 31.5157ZM85.2478 33.7808V40.576H91.7383V33.7808H85.2478Z" fill="#002D31"/>
<path d="M100.495 42.8348H98.3298V31.5157H106.986C108.425 31.5157 109.151 32.2708 109.151 33.7808V36.0459C109.151 37.5559 108.432 38.3109 106.986 38.3109H100.495V42.841V42.8348ZM106.986 36.0459V33.7808H100.495V36.0459H106.986Z" fill="#002D31"/>
<path d="M124.399 31.5157V33.7808H113.584V31.5157H124.399ZM124.399 36.0459V38.3109H113.584V36.0459H124.399ZM124.399 40.576V42.841H113.584V40.576H124.399Z" fill="#002D31"/>
<path d="M132.38 38.311L130.991 36.8639V42.8411H128.825V31.5221H137.481C138.921 31.5221 139.647 32.2771 139.647 33.7872V36.0522C139.647 37.5623 138.94 38.3173 137.519 38.3173H135.322L139.647 42.8474H136.705L132.38 38.3173V38.311ZM130.991 33.7809V36.0459H137.481V33.7809H130.991Z" fill="#002D31"/>
<path d="M144.079 31.5157H154.894V33.7808H150.569V42.8348H148.404V33.7808H144.079V31.5157Z" fill="#002D31"/>
<path d="M161.492 31.5157V42.8348H159.327V31.5157H161.492Z" fill="#002D31"/>
<path d="M176.74 31.5157V33.7808H165.924V31.5157H176.74ZM176.74 36.0459V38.3109H165.924V36.0459H176.74ZM176.74 40.576V42.841H165.924V40.576H176.74Z" fill="#002D31"/>
<path d="M191.994 33.7808H183.338V36.0459H189.828C191.268 36.0459 191.994 36.8009 191.994 38.3109V40.576C191.994 42.086 191.274 42.841 189.828 42.841H181.172V40.576H189.828V38.3109H183.338C181.898 38.3109 181.172 37.5559 181.172 36.0459V33.7808C181.172 32.2708 181.892 31.5157 183.338 31.5157H191.994V33.7808Z" fill="#002D31"/>
<path d="M55.5039 19.3663H52.5995V4.17151H64.2168C66.1551 4.17151 67.1211 5.18449 67.1211 7.21046V10.2494C67.1211 12.2754 66.1551 13.2884 64.2168 13.2884H55.5039V19.3663ZM64.2168 10.2494V7.21046H55.5039V10.2494H64.2168Z" fill="#002D31"/>
<path d="M75.1837 13.2884L73.3212 11.3442V19.3726H70.4169V4.17151H82.0341C83.9724 4.17151 84.9384 5.18449 84.9384 7.21046V10.2494C84.9384 12.2754 83.985 13.2884 82.0783 13.2884H79.1298L84.9384 19.3663H80.9923L75.1837 13.2884ZM73.3212 7.21046V10.2494H82.0341V7.21046H73.3212Z" fill="#002D31"/>
<path d="M91.1511 4.17151H99.864C101.802 4.17151 102.768 5.18449 102.768 7.21046V16.3273C102.768 18.3533 101.802 19.3663 99.864 19.3663H91.1511C89.2128 19.3663 88.2468 18.3533 88.2468 16.3273V7.21046C88.2468 5.18449 89.2128 4.17151 91.1511 4.17151ZM91.1511 7.21046V16.3273H99.864V7.21046H91.1511Z" fill="#002D31"/>
<path d="M106.064 4.17151H120.586V7.21046H108.968V10.2494H120.586V13.2884H108.968V19.3663H106.064V4.17151Z" fill="#002D31"/>
<path d="M126.792 4.17151H135.505C137.443 4.17151 138.409 5.18449 138.409 7.21046V16.3273C138.409 18.3533 137.443 19.3663 135.505 19.3663H126.792C124.854 19.3663 123.888 18.3533 123.888 16.3273V7.21046C123.888 5.18449 124.854 4.17151 126.792 4.17151ZM126.792 7.21046V16.3273H135.505V7.21046H126.792Z" fill="#002D31"/>
<path d="M153.329 19.3663H144.616C142.677 19.3663 141.711 18.3533 141.711 16.3273V4.17151H144.616V16.3273H153.329V4.17151H156.233V16.3273C156.233 18.3533 155.267 19.3663 153.329 19.3663Z" fill="#002D31"/>
<path d="M162.288 19.3663H159.244V4.19666H161.985L171.424 14.6663V4.19666H174.467V19.3663H171.746L162.288 8.89666V19.3663Z" fill="#002D31"/>
<path d="M177.472 19.3663V4.17151H189.089C191.028 4.17151 191.994 5.18449 191.994 7.21046V16.3273C191.994 18.3533 191.028 19.3663 189.089 19.3663H177.472ZM180.376 16.3273H189.089V7.21046H180.376V16.3273Z" fill="#002D31"/>
</svg>
