<?xml version="1.0" encoding="UTF-8"?><svg id="uuid-158db4fa-6e36-4e82-8a5d-5841a288e50d" xmlns="http://www.w3.org/2000/svg" viewBox="0 0 1102.47 148.24"><defs><style>.uuid-b5ee10aa-9908-4296-a105-66af0d36503a{fill:#0e3941;opacity:.05;}.uuid-8934eefb-663b-4c43-a454-922230cd1272,.uuid-2037de65-1c21-4009-8551-a8d229cdcd40{fill:#002d32;}.uuid-2fc450b1-ec1b-4981-ad2d-f38eec3c6105{opacity:.5;}.uuid-b403475d-6e4a-4072-afa2-994b32df6ca3{font-size:12.35px;}.uuid-b403475d-6e4a-4072-afa2-994b32df6ca3,.uuid-2037de65-1c21-4009-8551-a8d229cdcd40,.uuid-21fe3837-53c1-4099-8942-4555a8fc5d7e{font-family:Candara, Candara;}.uuid-b403475d-6e4a-4072-afa2-994b32df6ca3,.uuid-8a0f105b-a671-4304-a9ef-e12a7581f7a2,.uuid-21fe3837-53c1-4099-8942-4555a8fc5d7e,.uuid-4ba1fec0-29ba-4cd3-964a-80adfd32f5df{fill:#003740;}.uuid-2037de65-1c21-4009-8551-a8d229cdcd40{font-size:11.69px;}.uuid-8a0f105b-a671-4304-a9ef-e12a7581f7a2{font-family:Candara-Bold, Candara;font-size:25.06px;font-weight:700;}.uuid-21fe3837-53c1-4099-8942-4555a8fc5d7e{font-size:16.34px;}.uuid-54862158-c3f1-45ae-b614-f3668063082d{fill:#dde4e4;}.uuid-3db62a44-2b17-4955-ba70-2813f906d8eb{fill:#f1f1f2;}.uuid-23c7bf3f-d309-4e47-a275-6221e2e37290{fill:none;stroke:#3e4861;stroke-miterlimit:10;stroke-width:.2px;}</style></defs><rect class="uuid-54862158-c3f1-45ae-b614-f3668063082d" y="84.58" width="1102.47" height="61.47"/><path class="uuid-8934eefb-663b-4c43-a454-922230cd1272" d="m1102.47,76.25v8.32H71.89v39.48c0,13.35-10.81,24.16-24.15,24.16H2.4c-1.32,0-2.4-1.08-2.4-2.4v-45.36c0-13.36,10.81-24.2,24.16-24.2h32.24c1.3,0,2.38,1.08,2.38,2.4v45.45c0,6.06-4.91,10.99-10.99,10.99H14.36c-.7,0-1.28-.58-1.28-1.3v-33.45c0-6.06,4.91-10.99,10.99-10.99h17.49c1.15,0,2.17.46,2.93,1.22s1.22,1.78,1.22,2.93c0,2.28-1.85,4.12-4.14,4.12h-17.51c-1.51,0-2.7,1.22-2.7,2.7v25.21c0,.7.56,1.3,1.3,1.3h25.17c1.49,0,2.7-1.2,2.7-2.7v-38.3c0-.72-.6-1.3-1.3-1.3h-25.17c-8.71,0-15.79,7.08-15.79,15.79v37.18c0,1.33,1.1,2.43,2.41,2.43h37.13c8.73,0,15.81-7.1,15.81-15.83v-43.82c.02-1.1.48-2.09,1.2-2.79.77-.77,1.8-1.23,2.94-1.23h1034.72Z"/><g class="uuid-2fc450b1-ec1b-4981-ad2d-f38eec3c6105"><circle class="uuid-b5ee10aa-9908-4296-a105-66af0d36503a" cx="61.22" cy="73.07" r="2.37"/><circle class="uuid-b5ee10aa-9908-4296-a105-66af0d36503a" cx="87.12" cy="73.07" r="2.37"/><path class="uuid-b5ee10aa-9908-4296-a105-66af0d36503a" d="m76.81,24.21v43.66c0,2.3,1.86,4.16,4.16,4.16h0c2.3,0,4.16-1.86,4.16-4.16v-4.11h0V24.14c0-8.74,7.08-15.83,15.82-15.83h37.18c1.33,0,2.41,1.08,2.41,2.42v37.2c0,8.74-7.08,15.83-15.81,15.83h-25.19c-.71,0-1.29-.58-1.29-1.29V24.12c0-1.49,1.21-2.7,2.7-2.7h25.21c.72,0,1.29.58,1.29,1.3v25.22c0,1.49-1.21,2.7-2.7,2.7h-17.53c-2.29,0-4.14,1.85-4.14,4.14h0c0,2.29,1.85,4.14,4.14,4.14h17.51c6.07,0,10.99-4.93,10.99-11V14.43c0-.71-.58-1.29-1.29-1.29h-33.47c-6.07,0-10.99,4.93-10.99,11v26.48h0v19c0,1.32,1.07,2.4,2.4,2.4h32.26c13.36,0,24.19-10.84,24.19-24.21V2.42C148.79,1.08,147.71,0,146.37,0h-45.37c-13.36,0-24.19,10.84-24.19,24.21Z"/><path class="uuid-b5ee10aa-9908-4296-a105-66af0d36503a" d="m71.98,24.25v43.66c0,2.3-1.86,4.16-4.16,4.16h0c-2.3,0-4.16-1.86-4.16-4.16v-4.11h0V24.18c0-8.74-7.08-15.83-15.82-15.83H10.68c-1.33,0-2.41,1.08-2.41,2.42v37.2c0,8.74,7.08,15.83,15.81,15.83h25.19c.71,0,1.29-.58,1.29-1.29V24.17c0-1.49-1.21-2.7-2.7-2.7h-25.21c-.72,0-1.29.58-1.29,1.3v25.22c0,1.49,1.21,2.7,2.7,2.7h17.53c2.29,0,4.14,1.85,4.14,4.14h0c0,2.29-1.85,4.14-4.14,4.14h-17.51c-6.07,0-10.99-4.93-10.99-11V14.48c0-.71.58-1.29,1.29-1.29h33.47c6.07,0,10.99,4.93,10.99,11v26.48s0,0,0,0v19c0,1.32-1.07,2.4-2.4,2.4H24.19C10.83,72.07,0,61.23,0,47.87V2.46C0,1.12,1.08.04,2.41.04h45.37c13.36,0,24.19,10.84,24.19,24.21Z"/><path class="uuid-b5ee10aa-9908-4296-a105-66af0d36503a" d="m76.81,124.04v-43.66c0-2.3,1.86-4.16,4.16-4.16h0c2.3,0,4.16,1.86,4.16,4.16v4.11s0,0,0,0v39.62c0,8.74,7.08,15.83,15.82,15.83h37.18c1.33,0,2.41-1.08,2.41-2.42v-37.2c0-8.74-7.08-15.83-15.81-15.83h-25.19c-.71,0-1.29.58-1.29,1.29v38.34c0,1.49,1.21,2.7,2.7,2.7h25.21c.72,0,1.29-.58,1.29-1.3v-25.22c0-1.49-1.21-2.7-2.7-2.7h-17.53c-2.29,0-4.14-1.85-4.14-4.14h0c0-2.29,1.85-4.14,4.14-4.14h17.51c6.07,0,10.99,4.93,10.99,11v33.49c0,.71-.58,1.29-1.29,1.29h-33.47c-6.07,0-10.99-4.93-10.99-11v-26.48h0s0-19,0-19c0-1.32,1.07-2.4,2.4-2.4h32.26c13.36,0,24.19,10.84,24.19,24.21v45.41c0,1.33-1.08,2.42-2.41,2.42h-45.37c-13.36,0-24.19-10.84-24.19-24.21Z"/></g><g><path class="uuid-8934eefb-663b-4c43-a454-922230cd1272" d="m1028.9,63.67h5.37v1.15h-2.15v4.61h-1.07v-4.61h-2.15v-1.15Z"/><path class="uuid-8934eefb-663b-4c43-a454-922230cd1272" d="m1036.42,63.67v2.3h3.22v-2.3h1.07v5.76h-1.07v-2.3h-3.22v2.3h-1.07v-5.76h1.07Z"/><path class="uuid-8934eefb-663b-4c43-a454-922230cd1272" d="m1042.86,63.67v5.76h-1.07v-5.76h1.07Z"/><path class="uuid-8934eefb-663b-4c43-a454-922230cd1272" d="m1043.93,69.43v-5.76l4.3,3.46v-3.46h1.07v5.76l-4.29-3.46v3.46h-1.07Z"/><path class="uuid-8934eefb-663b-4c43-a454-922230cd1272" d="m1051.45,63.67v5.76h-1.07v-5.76h1.07Zm.15,2.88l2.68-2.88h1.46l-2.68,2.88,2.68,2.88h-1.46l-2.68-2.88Z"/><path class="uuid-8934eefb-663b-4c43-a454-922230cd1272" d="m1061.12,63.67h5.37v1.15h-4.29v1.15h4.29v1.15h-4.29v2.3h-1.07v-5.76Z"/><path class="uuid-8934eefb-663b-4c43-a454-922230cd1272" d="m1071.86,69.43h-3.22c-.72,0-1.07-.38-1.07-1.15v-4.61h1.07v4.61h3.22v-4.61h1.07v4.61c0,.77-.36,1.15-1.07,1.15Z"/><path class="uuid-8934eefb-663b-4c43-a454-922230cd1272" d="m1074,63.67h5.37v1.15h-2.15v4.61h-1.07v-4.61h-2.15v-1.15Z"/><path class="uuid-8934eefb-663b-4c43-a454-922230cd1272" d="m1084.74,69.43h-3.22c-.72,0-1.07-.38-1.07-1.15v-4.61h1.07v4.61h3.22v-4.61h1.07v4.61c0,.77-.36,1.15-1.07,1.15Z"/><path class="uuid-8934eefb-663b-4c43-a454-922230cd1272" d="m1088.65,67.13l-.69-.74v3.04h-1.07v-5.76h4.3c.71,0,1.07.38,1.07,1.15v1.15c0,.77-.35,1.15-1.06,1.15h-1.09l2.15,2.3h-1.46l-2.15-2.3Zm-.69-2.31v1.15h3.22v-1.15h-3.22Z"/><path class="uuid-8934eefb-663b-4c43-a454-922230cd1272" d="m1098.7,63.67v1.15h-5.37v-1.15h5.37Zm0,2.3v1.15h-5.37v-1.15h5.37Zm0,2.31v1.15h-5.37v-1.15h5.37Z"/></g><line class="uuid-23c7bf3f-d309-4e47-a275-6221e2e37290" x1="318.64" y1="134.83" x2="318.64" y2="97.36"/><line class="uuid-23c7bf3f-d309-4e47-a275-6221e2e37290" x1="668.42" y1="135.1" x2="668.42" y2="97.63"/><g><g><g><path class="uuid-8934eefb-663b-4c43-a454-922230cd1272" d="m678.73,117.28h15.71v15.71c0,1.54-1.25,2.8-2.8,2.8h-15.71v-15.71c0-1.54,1.25-2.8,2.8-2.8Z"/><path class="uuid-3db62a44-2b17-4955-ba70-2813f906d8eb" d="m685.19,120.03c-2.46,0-4.46,2-4.46,4.46,0,.83.24,1.64.67,2.33l3.86,6.22,3.75-6.27c.42-.68.64-1.47.64-2.28,0-2.46-2-4.46-4.46-4.46Zm0,7.12c-1.49,0-2.66-1.21-2.66-2.66s1.19-2.66,2.66-2.66,2.66,1.19,2.66,2.66-1.15,2.66-2.66,2.66Zm0-4.46c-.99,0-1.79.8-1.79,1.79s.81,1.79,1.79,1.79,1.78-.82,1.78-1.79-.79-1.79-1.78-1.79Zm0-2.66c-2.46,0-4.46,2-4.46,4.46,0,.83.24,1.64.67,2.33l3.86,6.22,3.75-6.27c.42-.68.64-1.47.64-2.28,0-2.46-2-4.46-4.46-4.46Zm0,7.12c-1.49,0-2.66-1.21-2.66-2.66s1.19-2.66,2.66-2.66,2.66,1.19,2.66,2.66-1.15,2.66-2.66,2.66Zm0-4.46c-.99,0-1.79.8-1.79,1.79s.81,1.79,1.79,1.79,1.78-.82,1.78-1.79-.79-1.79-1.78-1.79Zm0-2.66c-2.46,0-4.46,2-4.46,4.46,0,.83.24,1.64.67,2.33l3.86,6.22,3.75-6.27c.42-.68.64-1.47.64-2.28,0-2.46-2-4.46-4.46-4.46Zm0,7.12c-1.49,0-2.66-1.21-2.66-2.66s1.19-2.66,2.66-2.66,2.66,1.19,2.66,2.66-1.15,2.66-2.66,2.66Zm0-4.46c-.99,0-1.79.8-1.79,1.79s.81,1.79,1.79,1.79,1.78-.82,1.78-1.79-.79-1.79-1.78-1.79Z"/></g><text class="uuid-2037de65-1c21-4009-8551-a8d229cdcd40" transform="translate(700.55 130.29)"><tspan x="0" y="0">Ofce 1618, The binary tower, Business bay, PO.BOX 418125, Dubai, UAE</tspan></text></g><text class="uuid-21fe3837-53c1-4099-8942-4555a8fc5d7e" transform="translate(701.48 107.94)"><tspan x="0" y="0">+971 45545232</tspan></text><g><path class="uuid-4ba1fec0-29ba-4cd3-964a-80adfd32f5df" d="m679.03,93.07h16.61v16.61c0,1.54-1.25,2.8-2.8,2.8h-16.61v-16.61c0-1.54,1.25-2.8,2.8-2.8Z"/><path class="uuid-3db62a44-2b17-4955-ba70-2813f906d8eb" d="m690.48,105.06c-.16-.18-.44-.18-.61,0l-.31.3,2.44,2.44.31-.31c.16-.16.16-.43,0-.61l-1.84-1.82Zm-2.75,1.36c-.47,0-.95-.18-1.3-.53l-3.6-3.61c-.7-.7-.73-1.81-.09-2.53l-2.43-2.43c-1.24,1.51-1.17,3.72.24,5.12l5.72,5.72c1.42,1.42,3.63,1.5,5.12.25l-2.43-2.44c-.36.31-.78.46-1.23.46Zm-4.07-7.6c.16-.16.16-.43,0-.61l-1.84-1.82c-.16-.16-.44-.16-.61,0l-.31.3,2.44,2.44.31-.31Z"/></g></g><text class="uuid-8a0f105b-a671-4304-a9ef-e12a7581f7a2" transform="translate(96.4 116.75)"><tspan x="0" y="0">Moiddin Shawad</tspan></text><text class="uuid-b403475d-6e4a-4072-afa2-994b32df6ca3" transform="translate(97.27 134.56)"><tspan x="0" y="0">Property Investment Advisor </tspan></text><g><text class="uuid-21fe3837-53c1-4099-8942-4555a8fc5d7e" transform="translate(357.88 108.22)"><tspan x="0" y="0">+971 559641828</tspan></text><g><path class="uuid-4ba1fec0-29ba-4cd3-964a-80adfd32f5df" d="m335.43,93.36h16.61v16.61c0,1.54-1.25,2.8-2.8,2.8h-16.61v-16.61c0-1.54,1.25-2.8,2.8-2.8Z"/><path class="uuid-3db62a44-2b17-4955-ba70-2813f906d8eb" d="m338.61,103.22c0-1.98,0-3.96,0-5.94,0-.18.02-.37.07-.54.16-.53.57-.76,1.09-.85.11-.02.22-.02.33-.02,1.47,0,2.94,0,4.41,0,.2,0,.4.03.59.09.55.18.83.59.85,1.2,0,.05,0,.1,0,.14,0,3.94,0,7.88,0,11.82,0,.17-.01.34-.05.51-.13.52-.49.78-.99.89-.12.03-.25.04-.38.04-1.5,0-3,0-4.5,0-.19,0-.39-.03-.57-.09-.56-.18-.85-.62-.85-1.27,0-.79,0-1.58,0-2.37,0-1.21,0-2.42,0-3.62Zm.79-5.67v10.89h5.76v-10.89h-5.76Zm2.87,11.36c-.31,0-.55.25-.55.56,0,.31.26.56.56.56.31,0,.55-.26.55-.57,0-.31-.25-.55-.56-.55Zm0-12.03c.22,0,.43,0,.65,0,.13,0,.18-.05.18-.16,0-.11-.05-.17-.17-.17-.43,0-.87,0-1.3,0-.12,0-.17.06-.17.17,0,.11.05.16.18.16.22,0,.43,0,.65,0Zm-1.13-.21s-.09-.08-.14-.08c-.04,0-.11.07-.11.12-.01.07.04.12.12.12.08,0,.12-.05.13-.17Z"/></g></g><g><text class="uuid-21fe3837-53c1-4099-8942-4555a8fc5d7e" transform="translate(357.88 132.13)"><tspan x="0" y="0">M.Shawad@theprofoundproperties.com</tspan></text><g><path class="uuid-4ba1fec0-29ba-4cd3-964a-80adfd32f5df" d="m335.43,118.83h16.61v16.61c0,1.54-1.25,2.8-2.8,2.8h-16.61v-16.61c0-1.54,1.25-2.8,2.8-2.8Z"/><path class="uuid-3db62a44-2b17-4955-ba70-2813f906d8eb" d="m337.29,126.95l.63.64v-1.27l-.63.63Zm-.17.98v6.08l3.04-3.03-3.04-3.04Zm1.61-5.43v5.89l2.16,2.18h2.88l2.18-2.18v-5.89h-7.22Zm5.21,4.8c-.31,0-.59-.11-.8-.31-.22.2-.5.31-.81.31-.66,0-1.2-.53-1.2-1.2s.54-1.2,1.2-1.2,1.2.54,1.2,1.2h0c.01.25.21.4.4.4.22,0,.41-.18.41-.4,0-1.1-.91-2-2.01-2s-2,.89-2,2c0,.68.35,1.33.92,1.69.6.38,1.34.42,2.03.1.2-.08.43,0,.53.2.1.21,0,.45-.2.53-.95.45-1.97.39-2.79-.14-.81-.53-1.3-1.41-1.3-2.37,0-1.55,1.26-2.81,2.81-2.81s2.81,1.26,2.81,2.81c0,.67-.53,1.2-1.2,1.2Zm-1.61-1.61c-.22,0-.39.18-.39.4s.17.4.39.4c.21,0,.36-.15.4-.34-.01-.04-.01-.08,0-.11-.03-.2-.2-.36-.4-.36Zm1.44,5.67h-2.88l-3.2,3.21h9.29l-3.21-3.21Zm2.97-5.04v1.27l.64-.64-.64-.63Zm-2.23,4.65l3.04,3.03v-6.08l-3.04,3.04Zm0,0l3.04,3.03v-6.08l-3.04,3.04Zm2.23-4.65v1.27l.64-.64-.64-.63Zm-5.85,5.04l-3.2,3.21h9.29l-3.21-3.21h-2.88Zm2.88-.8l2.18-2.18v-5.89h-7.22v5.89l2.16,2.18h2.88Zm-4.25-4.47c0-1.55,1.26-2.81,2.81-2.81s2.81,1.26,2.81,2.81c0,.67-.53,1.2-1.2,1.2-.31,0-.59-.11-.8-.31-.22.2-.5.31-.81.31-.66,0-1.2-.53-1.2-1.2s.54-1.2,1.2-1.2,1.2.54,1.2,1.2h0c.01.25.21.4.4.4.22,0,.41-.18.41-.4,0-1.1-.91-2-2.01-2s-2,.89-2,2c0,.68.35,1.33.92,1.69.6.38,1.34.42,2.03.1.2-.08.43,0,.53.2.1.21,0,.45-.2.53-.95.45-1.97.39-2.79-.14-.81-.53-1.3-1.41-1.3-2.37Zm2.81-.4c-.22,0-.39.18-.39.4s.17.4.39.4c.21,0,.36-.15.4-.34-.01-.04-.01-.08,0-.11-.03-.2-.2-.36-.4-.36Zm-5.21,2.23v6.08l3.04-3.03-3.04-3.04Zm.8-1.61l-.63.63.63.64v-1.27Zm9.64,7.68v-6.08l-3.04,3.04,3.04,3.03Zm-.81-7.68v1.27l.64-.64-.64-.63Zm-5.85,5.04l-3.2,3.21h9.29l-3.21-3.21h-2.88Zm2.88-.8l2.18-2.18v-5.89h-7.22v5.89l2.16,2.18h2.88Zm-4.25-4.47c0-1.55,1.26-2.81,2.81-2.81s2.81,1.26,2.81,2.81c0,.67-.53,1.2-1.2,1.2-.31,0-.59-.11-.8-.31-.22.2-.5.31-.81.31-.66,0-1.2-.53-1.2-1.2s.54-1.2,1.2-1.2,1.2.54,1.2,1.2h0c.01.25.21.4.4.4.22,0,.41-.18.41-.4,0-1.1-.91-2-2.01-2s-2,.89-2,2c0,.68.35,1.33.92,1.69.6.38,1.34.42,2.03.1.2-.08.43,0,.53.2.1.21,0,.45-.2.53-.95.45-1.97.39-2.79-.14-.81-.53-1.3-1.41-1.3-2.37Zm2.81-.4c-.22,0-.39.18-.39.4s.17.4.39.4c.21,0,.36-.15.4-.34-.01-.04-.01-.08,0-.11-.03-.2-.2-.36-.4-.36Zm-5.21,2.23v6.08l3.04-3.03-3.04-3.04Zm.8-1.61l-.63.63.63.64v-1.27Z"/></g></g></svg>