<?xml version="1.0" encoding="UTF-8"?><svg id="uuid-6f6197f7-f940-4bc0-be08-fdc2923f0025" xmlns="http://www.w3.org/2000/svg" viewBox="0 0 1102.47 148.24"><defs><style>.uuid-402c02bb-3f18-4a8c-8dd9-9d1227876810{fill:#0e3941;opacity:.05;}.uuid-6831ef40-4dcb-48e2-9ba9-650167b5a127,.uuid-90d8d422-9444-42ce-845e-7218f42cb0f9{fill:#002d32;}.uuid-d14d4348-f34e-49b4-807b-0a2c9374f47d{opacity:.5;}.uuid-90d8d422-9444-42ce-845e-7218f42cb0f9{font-size:11.69px;}.uuid-90d8d422-9444-42ce-845e-7218f42cb0f9,.uuid-8ee7800c-efcb-4c0e-b493-e47661381fc8,.uuid-6865437f-41fa-4d97-912d-b27ddd783bf9,.uuid-a213da1b-1f7c-4cdd-8349-53b638921cfd{font-family:Candara, Candara;}.uuid-8da90463-2c5e-4ad2-990b-99c3bd53b896{font-family:Candara-Bold, Candara;font-size:24.25px;font-weight:700;}.uuid-8da90463-2c5e-4ad2-990b-99c3bd53b896,.uuid-8ee7800c-efcb-4c0e-b493-e47661381fc8,.uuid-6865437f-41fa-4d97-912d-b27ddd783bf9,.uuid-a213da1b-1f7c-4cdd-8349-53b638921cfd,.uuid-f5d9d695-850f-489d-b231-a189aa6f9192{fill:#003740;}.uuid-8ee7800c-efcb-4c0e-b493-e47661381fc8{font-size:11.95px;}.uuid-6865437f-41fa-4d97-912d-b27ddd783bf9{font-size:16.34px;}.uuid-a213da1b-1f7c-4cdd-8349-53b638921cfd{font-size:16.58px;}.uuid-6f484b72-57ab-4e9c-afad-ac7401d2bf01{fill:#dde4e4;}.uuid-e776b3c8-496a-4018-88fa-d6a9ec1e1016{fill:#f1f1f2;}.uuid-da67f2f9-8fe3-48a3-a0fb-d11751ed39ba{fill:none;stroke:#3e4861;stroke-miterlimit:10;stroke-width:.2px;}</style></defs><rect class="uuid-6f484b72-57ab-4e9c-afad-ac7401d2bf01" y="84.58" width="1102.47" height="61.47"/><path class="uuid-6831ef40-4dcb-48e2-9ba9-650167b5a127" d="m1102.47,76.25v8.32H71.89v39.48c0,13.35-10.81,24.16-24.15,24.16H2.4c-1.32,0-2.4-1.08-2.4-2.4v-45.36c0-13.36,10.81-24.2,24.16-24.2h32.24c1.3,0,2.38,1.08,2.38,2.4v45.45c0,6.06-4.91,10.99-10.99,10.99H14.36c-.7,0-1.28-.58-1.28-1.3v-33.45c0-6.06,4.91-10.99,10.99-10.99h17.49c1.15,0,2.17.46,2.93,1.22s1.22,1.78,1.22,2.93c0,2.28-1.85,4.12-4.14,4.12h-17.51c-1.51,0-2.7,1.22-2.7,2.7v25.21c0,.7.56,1.3,1.3,1.3h25.17c1.49,0,2.7-1.2,2.7-2.7v-38.3c0-.72-.6-1.3-1.3-1.3h-25.17c-8.71,0-15.79,7.08-15.79,15.79v37.18c0,1.33,1.1,2.43,2.41,2.43h37.13c8.73,0,15.81-7.1,15.81-15.83v-43.82c.02-1.1.48-2.09,1.2-2.79.77-.77,1.8-1.23,2.94-1.23h1034.72Z"/><g class="uuid-d14d4348-f34e-49b4-807b-0a2c9374f47d"><circle class="uuid-402c02bb-3f18-4a8c-8dd9-9d1227876810" cx="61.22" cy="73.07" r="2.37"/><circle class="uuid-402c02bb-3f18-4a8c-8dd9-9d1227876810" cx="87.12" cy="73.07" r="2.37"/><path class="uuid-402c02bb-3f18-4a8c-8dd9-9d1227876810" d="m76.81,24.21v43.66c0,2.3,1.86,4.16,4.16,4.16h0c2.3,0,4.16-1.86,4.16-4.16v-4.11h0V24.14c0-8.74,7.08-15.83,15.82-15.83h37.18c1.33,0,2.41,1.08,2.41,2.42v37.2c0,8.74-7.08,15.83-15.81,15.83h-25.19c-.71,0-1.29-.58-1.29-1.29V24.12c0-1.49,1.21-2.7,2.7-2.7h25.21c.72,0,1.29.58,1.29,1.3v25.22c0,1.49-1.21,2.7-2.7,2.7h-17.53c-2.29,0-4.14,1.85-4.14,4.14h0c0,2.29,1.85,4.14,4.14,4.14h17.51c6.07,0,10.99-4.93,10.99-11V14.43c0-.71-.58-1.29-1.29-1.29h-33.47c-6.07,0-10.99,4.93-10.99,11v26.48h0v19c0,1.32,1.07,2.4,2.4,2.4h32.26c13.36,0,24.19-10.84,24.19-24.21V2.42C148.79,1.08,147.71,0,146.37,0h-45.37c-13.36,0-24.19,10.84-24.19,24.21Z"/><path class="uuid-402c02bb-3f18-4a8c-8dd9-9d1227876810" d="m71.98,24.25v43.66c0,2.3-1.86,4.16-4.16,4.16h0c-2.3,0-4.16-1.86-4.16-4.16v-4.11h0V24.18c0-8.74-7.08-15.83-15.82-15.83H10.68c-1.33,0-2.41,1.08-2.41,2.42v37.2c0,8.74,7.08,15.83,15.81,15.83h25.19c.71,0,1.29-.58,1.29-1.29V24.17c0-1.49-1.21-2.7-2.7-2.7h-25.21c-.72,0-1.29.58-1.29,1.3v25.22c0,1.49,1.21,2.7,2.7,2.7h17.53c2.29,0,4.14,1.85,4.14,4.14h0c0,2.29-1.85,4.14-4.14,4.14h-17.51c-6.07,0-10.99-4.93-10.99-11V14.48c0-.71.58-1.29,1.29-1.29h33.47c6.07,0,10.99,4.93,10.99,11v26.48s0,0,0,0v19c0,1.32-1.07,2.4-2.4,2.4H24.19C10.83,72.07,0,61.23,0,47.87V2.46C0,1.12,1.08.04,2.41.04h45.37c13.36,0,24.19,10.84,24.19,24.21Z"/><path class="uuid-402c02bb-3f18-4a8c-8dd9-9d1227876810" d="m76.81,124.04v-43.66c0-2.3,1.86-4.16,4.16-4.16h0c2.3,0,4.16,1.86,4.16,4.16v4.11s0,0,0,0v39.62c0,8.74,7.08,15.83,15.82,15.83h37.18c1.33,0,2.41-1.08,2.41-2.42v-37.2c0-8.74-7.08-15.83-15.81-15.83h-25.19c-.71,0-1.29.58-1.29,1.29v38.34c0,1.49,1.21,2.7,2.7,2.7h25.21c.72,0,1.29-.58,1.29-1.3v-25.22c0-1.49-1.21-2.7-2.7-2.7h-17.53c-2.29,0-4.14-1.85-4.14-4.14h0c0-2.29,1.85-4.14,4.14-4.14h17.51c6.07,0,10.99,4.93,10.99,11v33.49c0,.71-.58,1.29-1.29,1.29h-33.47c-6.07,0-10.99-4.93-10.99-11v-26.48h0s0-19,0-19c0-1.32,1.07-2.4,2.4-2.4h32.26c13.36,0,24.19,10.84,24.19,24.21v45.41c0,1.33-1.08,2.42-2.41,2.42h-45.37c-13.36,0-24.19-10.84-24.19-24.21Z"/></g><g><path class="uuid-6831ef40-4dcb-48e2-9ba9-650167b5a127" d="m1028.9,63.67h5.37v1.15h-2.15v4.61h-1.07v-4.61h-2.15v-1.15Z"/><path class="uuid-6831ef40-4dcb-48e2-9ba9-650167b5a127" d="m1036.42,63.67v2.3h3.22v-2.3h1.07v5.76h-1.07v-2.3h-3.22v2.3h-1.07v-5.76h1.07Z"/><path class="uuid-6831ef40-4dcb-48e2-9ba9-650167b5a127" d="m1042.86,63.67v5.76h-1.07v-5.76h1.07Z"/><path class="uuid-6831ef40-4dcb-48e2-9ba9-650167b5a127" d="m1043.93,69.43v-5.76l4.3,3.46v-3.46h1.07v5.76l-4.29-3.46v3.46h-1.07Z"/><path class="uuid-6831ef40-4dcb-48e2-9ba9-650167b5a127" d="m1051.45,63.67v5.76h-1.07v-5.76h1.07Zm.15,2.88l2.68-2.88h1.46l-2.68,2.88,2.68,2.88h-1.46l-2.68-2.88Z"/><path class="uuid-6831ef40-4dcb-48e2-9ba9-650167b5a127" d="m1061.12,63.67h5.37v1.15h-4.29v1.15h4.29v1.15h-4.29v2.3h-1.07v-5.76Z"/><path class="uuid-6831ef40-4dcb-48e2-9ba9-650167b5a127" d="m1071.86,69.43h-3.22c-.72,0-1.07-.38-1.07-1.15v-4.61h1.07v4.61h3.22v-4.61h1.07v4.61c0,.77-.36,1.15-1.07,1.15Z"/><path class="uuid-6831ef40-4dcb-48e2-9ba9-650167b5a127" d="m1074,63.67h5.37v1.15h-2.15v4.61h-1.07v-4.61h-2.15v-1.15Z"/><path class="uuid-6831ef40-4dcb-48e2-9ba9-650167b5a127" d="m1084.74,69.43h-3.22c-.72,0-1.07-.38-1.07-1.15v-4.61h1.07v4.61h3.22v-4.61h1.07v4.61c0,.77-.36,1.15-1.07,1.15Z"/><path class="uuid-6831ef40-4dcb-48e2-9ba9-650167b5a127" d="m1088.65,67.13l-.69-.74v3.04h-1.07v-5.76h4.3c.71,0,1.07.38,1.07,1.15v1.15c0,.77-.35,1.15-1.06,1.15h-1.09l2.15,2.3h-1.46l-2.15-2.3Zm-.69-2.31v1.15h3.22v-1.15h-3.22Z"/><path class="uuid-6831ef40-4dcb-48e2-9ba9-650167b5a127" d="m1098.7,63.67v1.15h-5.37v-1.15h5.37Zm0,2.3v1.15h-5.37v-1.15h5.37Zm0,2.31v1.15h-5.37v-1.15h5.37Z"/></g><line class="uuid-da67f2f9-8fe3-48a3-a0fb-d11751ed39ba" x1="318.64" y1="134.83" x2="318.64" y2="97.36"/><line class="uuid-da67f2f9-8fe3-48a3-a0fb-d11751ed39ba" x1="668.42" y1="135.1" x2="668.42" y2="97.63"/><g><g><g><path class="uuid-6831ef40-4dcb-48e2-9ba9-650167b5a127" d="m678.73,117.28h15.71v15.71c0,1.54-1.25,2.8-2.8,2.8h-15.71v-15.71c0-1.54,1.25-2.8,2.8-2.8Z"/><path class="uuid-e776b3c8-496a-4018-88fa-d6a9ec1e1016" d="m685.19,120.03c-2.46,0-4.46,2-4.46,4.46,0,.83.24,1.64.67,2.33l3.86,6.22,3.75-6.27c.42-.68.64-1.47.64-2.28,0-2.46-2-4.46-4.46-4.46Zm0,7.12c-1.49,0-2.66-1.21-2.66-2.66s1.19-2.66,2.66-2.66,2.66,1.19,2.66,2.66-1.15,2.66-2.66,2.66Zm0-4.46c-.99,0-1.79.8-1.79,1.79s.81,1.79,1.79,1.79,1.78-.82,1.78-1.79-.79-1.79-1.78-1.79Zm0-2.66c-2.46,0-4.46,2-4.46,4.46,0,.83.24,1.64.67,2.33l3.86,6.22,3.75-6.27c.42-.68.64-1.47.64-2.28,0-2.46-2-4.46-4.46-4.46Zm0,7.12c-1.49,0-2.66-1.21-2.66-2.66s1.19-2.66,2.66-2.66,2.66,1.19,2.66,2.66-1.15,2.66-2.66,2.66Zm0-4.46c-.99,0-1.79.8-1.79,1.79s.81,1.79,1.79,1.79,1.78-.82,1.78-1.79-.79-1.79-1.78-1.79Zm0-2.66c-2.46,0-4.46,2-4.46,4.46,0,.83.24,1.64.67,2.33l3.86,6.22,3.75-6.27c.42-.68.64-1.47.64-2.28,0-2.46-2-4.46-4.46-4.46Zm0,7.12c-1.49,0-2.66-1.21-2.66-2.66s1.19-2.66,2.66-2.66,2.66,1.19,2.66,2.66-1.15,2.66-2.66,2.66Zm0-4.46c-.99,0-1.79.8-1.79,1.79s.81,1.79,1.79,1.79,1.78-.82,1.78-1.79-.79-1.79-1.78-1.79Z"/></g><text class="uuid-90d8d422-9444-42ce-845e-7218f42cb0f9" transform="translate(700.55 130.29)"><tspan x="0" y="0">Ofce 1618, The binary tower, Business bay, PO.BOX 418125, Dubai, UAE</tspan></text></g><text class="uuid-6865437f-41fa-4d97-912d-b27ddd783bf9" transform="translate(701.48 107.94)"><tspan x="0" y="0">+971 45545232</tspan></text><g><path class="uuid-f5d9d695-850f-489d-b231-a189aa6f9192" d="m679.03,93.07h16.61v16.61c0,1.54-1.25,2.8-2.8,2.8h-16.61v-16.61c0-1.54,1.25-2.8,2.8-2.8Z"/><path class="uuid-e776b3c8-496a-4018-88fa-d6a9ec1e1016" d="m690.48,105.06c-.16-.18-.44-.18-.61,0l-.31.3,2.44,2.44.31-.31c.16-.16.16-.43,0-.61l-1.84-1.82Zm-2.75,1.36c-.47,0-.95-.18-1.3-.53l-3.6-3.61c-.7-.7-.73-1.81-.09-2.53l-2.43-2.43c-1.24,1.51-1.17,3.72.24,5.12l5.72,5.72c1.42,1.42,3.63,1.5,5.12.25l-2.43-2.44c-.36.31-.78.46-1.23.46Zm-4.07-7.6c.16-.16.16-.43,0-.61l-1.84-1.82c-.16-.16-.44-.16-.61,0l-.31.3,2.44,2.44.31-.31Z"/></g></g><text class="uuid-8da90463-2c5e-4ad2-990b-99c3bd53b896" transform="translate(82.94 115.17)"><tspan x="0" y="0" xml:space="preserve">Pitshou Ngopwani  </tspan></text><text class="uuid-8ee7800c-efcb-4c0e-b493-e47661381fc8" transform="translate(83.78 132.4)"><tspan x="0" y="0">Property Investment Advisor </tspan></text><g><text class="uuid-a213da1b-1f7c-4cdd-8349-53b638921cfd" transform="translate(353.9 107.93)"><tspan x="0" y="0">+971 586244495</tspan></text><g><path class="uuid-f5d9d695-850f-489d-b231-a189aa6f9192" d="m331.1,92.85h16.88v16.88c0,1.54-1.25,2.8-2.8,2.8h-16.88v-16.88c0-1.54,1.25-2.8,2.8-2.8Z"/><path class="uuid-e776b3c8-496a-4018-88fa-d6a9ec1e1016" d="m334.36,102.85c0-2.01,0-4.02,0-6.03,0-.18.02-.37.07-.55.17-.53.58-.77,1.1-.86.11-.02.23-.02.34-.02,1.49,0,2.98,0,4.48,0,.2,0,.41.03.6.1.55.18.84.6.86,1.22,0,.05,0,.1,0,.15,0,3.99,0,7.99,0,11.98,0,.17-.01.35-.05.51-.13.52-.5.79-1,.91-.12.03-.25.04-.38.04-1.52,0-3.04,0-4.57,0-.19,0-.39-.04-.58-.09-.57-.19-.86-.62-.86-1.28,0-.8,0-1.61,0-2.41,0-1.22,0-2.45,0-3.67Zm.8-5.75v11.05h5.84v-11.05h-5.84Zm2.91,11.52c-.31,0-.56.26-.56.57,0,.31.26.57.57.56.31,0,.56-.26.56-.57,0-.31-.26-.56-.57-.56Zm0-12.21c.22,0,.44,0,.66,0,.13,0,.18-.05.18-.16,0-.12-.05-.17-.17-.17-.44,0-.88,0-1.32,0-.12,0-.18.06-.18.17,0,.11.05.16.18.16.22,0,.44,0,.66,0Zm-1.14-.21s-.09-.08-.14-.08c-.04,0-.11.07-.12.12-.01.07.04.13.12.13.08,0,.12-.05.13-.17Z"/></g></g><g><text class="uuid-a213da1b-1f7c-4cdd-8349-53b638921cfd" transform="translate(353.9 133.15)"><tspan x="0" y="0">M.Pitshou@theprofoundproperties.com</tspan></text><g><path class="uuid-f5d9d695-850f-489d-b231-a189aa6f9192" d="m331.1,119.66h16.88v16.88c0,1.54-1.25,2.8-2.8,2.8h-16.88v-16.88c0-1.54,1.25-2.8,2.8-2.8Z"/><path class="uuid-e776b3c8-496a-4018-88fa-d6a9ec1e1016" d="m333.02,127.9l.64.65v-1.29l-.64.64Zm-.17.99v6.16l3.09-3.07-3.09-3.09Zm1.63-5.51v5.98l2.2,2.21h2.92l2.21-2.21v-5.98h-7.32Zm5.28,4.87c-.31,0-.59-.11-.81-.31-.23.2-.51.31-.82.31-.67,0-1.22-.54-1.22-1.22s.55-1.22,1.22-1.22,1.22.55,1.22,1.22h0c.01.25.21.41.41.41.23,0,.41-.18.41-.41,0-1.12-.92-2.03-2.04-2.03s-2.03.91-2.03,2.03c0,.69.35,1.35.93,1.71.61.38,1.36.42,2.05.1.2-.08.44,0,.54.2.1.21,0,.45-.2.54-.96.45-2,.4-2.83-.14-.82-.54-1.32-1.43-1.32-2.41,0-1.57,1.27-2.85,2.85-2.85s2.85,1.27,2.85,2.85c0,.68-.54,1.22-1.22,1.22Zm-1.63-1.63c-.23,0-.4.18-.4.41s.17.41.4.41c.21,0,.37-.16.41-.34-.01-.04-.01-.08,0-.11-.03-.2-.2-.37-.41-.37Zm1.46,5.75h-2.92l-3.24,3.26h9.42l-3.26-3.26Zm3.02-5.11v1.29l.65-.65-.65-.64Zm-2.27,4.72l3.09,3.07v-6.16l-3.09,3.09Zm0,0l3.09,3.07v-6.16l-3.09,3.09Zm2.27-4.72v1.29l.65-.65-.65-.64Zm-5.94,5.11l-3.24,3.26h9.42l-3.26-3.26h-2.92Zm2.92-.81l2.21-2.21v-5.98h-7.32v5.98l2.2,2.21h2.92Zm-4.31-4.53c0-1.57,1.27-2.85,2.85-2.85s2.85,1.27,2.85,2.85c0,.68-.54,1.22-1.22,1.22-.31,0-.59-.11-.81-.31-.23.2-.51.31-.82.31-.67,0-1.22-.54-1.22-1.22s.55-1.22,1.22-1.22,1.22.55,1.22,1.22h0c.01.25.21.41.41.41.23,0,.41-.18.41-.41,0-1.12-.92-2.03-2.04-2.03s-2.03.91-2.03,2.03c0,.69.35,1.35.93,1.71.61.38,1.36.42,2.05.1.2-.08.44,0,.54.2.1.21,0,.45-.2.54-.96.45-2,.4-2.83-.14-.82-.54-1.32-1.43-1.32-2.41Zm2.85-.41c-.23,0-.4.18-.4.41s.17.41.4.41c.21,0,.37-.16.41-.34-.01-.04-.01-.08,0-.11-.03-.2-.2-.37-.41-.37Zm-5.28,2.27v6.16l3.09-3.07-3.09-3.09Zm.81-1.63l-.64.64.64.65v-1.29Zm9.77,7.79v-6.16l-3.09,3.09,3.09,3.07Zm-.82-7.79v1.29l.65-.65-.65-.64Zm-5.94,5.11l-3.24,3.26h9.42l-3.26-3.26h-2.92Zm2.92-.81l2.21-2.21v-5.98h-7.32v5.98l2.2,2.21h2.92Zm-4.31-4.53c0-1.57,1.27-2.85,2.85-2.85s2.85,1.27,2.85,2.85c0,.68-.54,1.22-1.22,1.22-.31,0-.59-.11-.81-.31-.23.2-.51.31-.82.31-.67,0-1.22-.54-1.22-1.22s.55-1.22,1.22-1.22,1.22.55,1.22,1.22h0c.01.25.21.41.41.41.23,0,.41-.18.41-.41,0-1.12-.92-2.03-2.04-2.03s-2.03.91-2.03,2.03c0,.69.35,1.35.93,1.71.61.38,1.36.42,2.05.1.2-.08.44,0,.54.2.1.21,0,.45-.2.54-.96.45-2,.4-2.83-.14-.82-.54-1.32-1.43-1.32-2.41Zm2.85-.41c-.23,0-.4.18-.4.41s.17.41.4.41c.21,0,.37-.16.41-.34-.01-.04-.01-.08,0-.11-.03-.2-.2-.37-.41-.37Zm-5.28,2.27v6.16l3.09-3.07-3.09-3.09Zm.81-1.63l-.64.64.64.65v-1.29Z"/></g></g></svg>