<?xml version="1.0" encoding="UTF-8"?><svg id="uuid-78010510-4c62-4017-bec0-f5ff564b95b2" xmlns="http://www.w3.org/2000/svg" viewBox="0 0 1102.47 148.24"><defs><style>.uuid-8640c262-7fac-4dca-9780-977d50f31e72{fill:#0e3941;opacity:.05;}.uuid-064de3e3-97cc-4e30-9d6c-27fa3702742d,.uuid-d57e28e0-9ff1-449d-a759-84f3c3f4417a{fill:#002d32;}.uuid-068e3a50-2927-4bcf-86c3-e38bd5467adc{opacity:.5;}.uuid-d57e28e0-9ff1-449d-a759-84f3c3f4417a{font-size:11.69px;}.uuid-d57e28e0-9ff1-449d-a759-84f3c3f4417a,.uuid-33989f2e-f260-4f51-aca4-cf5d60d95314,.uuid-cb5e16dd-f28f-4549-bde9-a815b0bc52b0,.uuid-25073b3d-af5d-4d8f-85f0-09e4f6860c54{font-family:Candara, Candara;}.uuid-33989f2e-f260-4f51-aca4-cf5d60d95314{font-size:15.45px;}.uuid-33989f2e-f260-4f51-aca4-cf5d60d95314,.uuid-cb5e16dd-f28f-4549-bde9-a815b0bc52b0,.uuid-25073b3d-af5d-4d8f-85f0-09e4f6860c54,.uuid-53660be8-1492-4ec1-891e-ee2caa4ada44,.uuid-f0e80ad1-ee68-4d0b-b482-e848ae015918{fill:#003740;}.uuid-cb5e16dd-f28f-4549-bde9-a815b0bc52b0{font-size:16.34px;}.uuid-25073b3d-af5d-4d8f-85f0-09e4f6860c54{font-size:15.82px;}.uuid-ba404dff-caee-43aa-897c-6bc2861f7426{fill:#dde4e4;}.uuid-53660be8-1492-4ec1-891e-ee2caa4ada44{font-family:Candara-Bold, Candara;font-size:31.34px;font-weight:700;}.uuid-4439abc0-d617-4de3-8d69-206c6a9c7e1d{fill:#f1f1f2;}.uuid-7421927e-ee82-4e44-8307-0606d46f7d38{fill:none;stroke:#3e4861;stroke-miterlimit:10;stroke-width:.2px;}</style></defs><g><path class="uuid-064de3e3-97cc-4e30-9d6c-27fa3702742d" d="m1028.9,62.59h5.37v1.15h-2.15v4.61h-1.07v-4.61h-2.15v-1.15Z"/><path class="uuid-064de3e3-97cc-4e30-9d6c-27fa3702742d" d="m1036.42,62.59v2.3h3.22v-2.3h1.07v5.76h-1.07v-2.3h-3.22v2.3h-1.07v-5.76h1.07Z"/><path class="uuid-064de3e3-97cc-4e30-9d6c-27fa3702742d" d="m1042.86,62.59v5.76h-1.07v-5.76h1.07Z"/><path class="uuid-064de3e3-97cc-4e30-9d6c-27fa3702742d" d="m1043.93,68.35v-5.76l4.3,3.46v-3.46h1.07v5.76l-4.29-3.46v3.46h-1.07Z"/><path class="uuid-064de3e3-97cc-4e30-9d6c-27fa3702742d" d="m1051.45,62.59v5.76h-1.07v-5.76h1.07Zm.15,2.88l2.68-2.88h1.46l-2.68,2.88,2.68,2.88h-1.46l-2.68-2.88Z"/><path class="uuid-064de3e3-97cc-4e30-9d6c-27fa3702742d" d="m1061.12,62.59h5.37v1.15h-4.29v1.15h4.29v1.15h-4.29v2.3h-1.07v-5.76Z"/><path class="uuid-064de3e3-97cc-4e30-9d6c-27fa3702742d" d="m1071.86,68.35h-3.22c-.72,0-1.07-.38-1.07-1.15v-4.61h1.07v4.61h3.22v-4.61h1.07v4.61c0,.77-.36,1.15-1.07,1.15Z"/><path class="uuid-064de3e3-97cc-4e30-9d6c-27fa3702742d" d="m1074,62.59h5.37v1.15h-2.15v4.61h-1.07v-4.61h-2.15v-1.15Z"/><path class="uuid-064de3e3-97cc-4e30-9d6c-27fa3702742d" d="m1084.74,68.35h-3.22c-.72,0-1.07-.38-1.07-1.15v-4.61h1.07v4.61h3.22v-4.61h1.07v4.61c0,.77-.36,1.15-1.07,1.15Z"/><path class="uuid-064de3e3-97cc-4e30-9d6c-27fa3702742d" d="m1088.65,66.05l-.69-.74v3.04h-1.07v-5.76h4.3c.71,0,1.07.38,1.07,1.15v1.15c0,.77-.35,1.15-1.06,1.15h-1.09l2.15,2.3h-1.46l-2.15-2.3Zm-.69-2.31v1.15h3.22v-1.15h-3.22Z"/><path class="uuid-064de3e3-97cc-4e30-9d6c-27fa3702742d" d="m1098.7,62.59v1.15h-5.37v-1.15h5.37Zm0,2.3v1.15h-5.37v-1.15h5.37Zm0,2.31v1.15h-5.37v-1.15h5.37Z"/></g><line class="uuid-7421927e-ee82-4e44-8307-0606d46f7d38" x1="318.64" y1="133.76" x2="318.64" y2="96.28"/><line class="uuid-7421927e-ee82-4e44-8307-0606d46f7d38" x1="668.42" y1="134.02" x2="668.42" y2="96.55"/><rect class="uuid-ba404dff-caee-43aa-897c-6bc2861f7426" y="84.58" width="1102.47" height="61.47"/><path class="uuid-064de3e3-97cc-4e30-9d6c-27fa3702742d" d="m1102.47,76.25v8.32H71.89v39.48c0,13.35-10.81,24.16-24.15,24.16H2.4c-1.32,0-2.4-1.08-2.4-2.4v-45.36c0-13.36,10.81-24.2,24.16-24.2h32.24c1.3,0,2.38,1.08,2.38,2.4v45.45c0,6.06-4.91,10.99-10.99,10.99H14.36c-.7,0-1.28-.58-1.28-1.3v-33.45c0-6.06,4.91-10.99,10.99-10.99h17.49c1.15,0,2.17.46,2.93,1.22s1.22,1.78,1.22,2.93c0,2.28-1.85,4.12-4.14,4.12h-17.51c-1.51,0-2.7,1.22-2.7,2.7v25.21c0,.7.56,1.3,1.3,1.3h25.17c1.49,0,2.7-1.2,2.7-2.7v-38.3c0-.72-.6-1.3-1.3-1.3h-25.17c-8.71,0-15.79,7.08-15.79,15.79v37.18c0,1.33,1.1,2.43,2.41,2.43h37.13c8.73,0,15.81-7.1,15.81-15.83v-43.82c.02-1.1.48-2.09,1.2-2.79.77-.77,1.8-1.23,2.94-1.23h1034.72Z"/><g class="uuid-068e3a50-2927-4bcf-86c3-e38bd5467adc"><circle class="uuid-8640c262-7fac-4dca-9780-977d50f31e72" cx="61.22" cy="73.07" r="2.37"/><circle class="uuid-8640c262-7fac-4dca-9780-977d50f31e72" cx="87.12" cy="73.07" r="2.37"/><path class="uuid-8640c262-7fac-4dca-9780-977d50f31e72" d="m76.81,24.21v43.66c0,2.3,1.86,4.16,4.16,4.16h0c2.3,0,4.16-1.86,4.16-4.16v-4.11h0V24.14c0-8.74,7.08-15.83,15.82-15.83h37.18c1.33,0,2.41,1.08,2.41,2.42v37.2c0,8.74-7.08,15.83-15.81,15.83h-25.19c-.71,0-1.29-.58-1.29-1.29V24.12c0-1.49,1.21-2.7,2.7-2.7h25.21c.72,0,1.29.58,1.29,1.3v25.22c0,1.49-1.21,2.7-2.7,2.7h-17.53c-2.29,0-4.14,1.85-4.14,4.14h0c0,2.29,1.85,4.14,4.14,4.14h17.51c6.07,0,10.99-4.93,10.99-11V14.43c0-.71-.58-1.29-1.29-1.29h-33.47c-6.07,0-10.99,4.93-10.99,11v26.48h0v19c0,1.32,1.07,2.4,2.4,2.4h32.26c13.36,0,24.19-10.84,24.19-24.21V2.42C148.79,1.08,147.71,0,146.37,0h-45.37c-13.36,0-24.19,10.84-24.19,24.21Z"/><path class="uuid-8640c262-7fac-4dca-9780-977d50f31e72" d="m71.98,24.25v43.66c0,2.3-1.86,4.16-4.16,4.16h0c-2.3,0-4.16-1.86-4.16-4.16v-4.11h0V24.18c0-8.74-7.08-15.83-15.82-15.83H10.68c-1.33,0-2.41,1.08-2.41,2.42v37.2c0,8.74,7.08,15.83,15.81,15.83h25.19c.71,0,1.29-.58,1.29-1.29V24.17c0-1.49-1.21-2.7-2.7-2.7h-25.21c-.72,0-1.29.58-1.29,1.3v25.22c0,1.49,1.21,2.7,2.7,2.7h17.53c2.29,0,4.14,1.85,4.14,4.14h0c0,2.29-1.85,4.14-4.14,4.14h-17.51c-6.07,0-10.99-4.93-10.99-11V14.48c0-.71.58-1.29,1.29-1.29h33.47c6.07,0,10.99,4.93,10.99,11v26.48s0,0,0,0v19c0,1.32-1.07,2.4-2.4,2.4H24.19C10.83,72.07,0,61.23,0,47.87V2.46C0,1.12,1.08.04,2.41.04h45.37c13.36,0,24.19,10.84,24.19,24.21Z"/><path class="uuid-8640c262-7fac-4dca-9780-977d50f31e72" d="m76.81,124.04v-43.66c0-2.3,1.86-4.16,4.16-4.16h0c2.3,0,4.16,1.86,4.16,4.16v4.11s0,0,0,0v39.62c0,8.74,7.08,15.83,15.82,15.83h37.18c1.33,0,2.41-1.08,2.41-2.42v-37.2c0-8.74-7.08-15.83-15.81-15.83h-25.19c-.71,0-1.29.58-1.29,1.29v38.34c0,1.49,1.21,2.7,2.7,2.7h25.21c.72,0,1.29-.58,1.29-1.3v-25.22c0-1.49-1.21-2.7-2.7-2.7h-17.53c-2.29,0-4.14-1.85-4.14-4.14h0c0-2.29,1.85-4.14,4.14-4.14h17.51c6.07,0,10.99,4.93,10.99,11v33.49c0,.71-.58,1.29-1.29,1.29h-33.47c-6.07,0-10.99-4.93-10.99-11v-26.48h0s0-19,0-19c0-1.32,1.07-2.4,2.4-2.4h32.26c13.36,0,24.19,10.84,24.19,24.21v45.41c0,1.33-1.08,2.42-2.41,2.42h-45.37c-13.36,0-24.19-10.84-24.19-24.21Z"/></g><g><g><g><path class="uuid-064de3e3-97cc-4e30-9d6c-27fa3702742d" d="m678.73,116.2h15.71v15.71c0,1.54-1.25,2.8-2.8,2.8h-15.71v-15.71c0-1.54,1.25-2.8,2.8-2.8Z"/><path class="uuid-4439abc0-d617-4de3-8d69-206c6a9c7e1d" d="m685.19,118.95c-2.46,0-4.46,2-4.46,4.46,0,.83.24,1.64.67,2.33l3.86,6.22,3.75-6.27c.42-.68.64-1.47.64-2.28,0-2.46-2-4.46-4.46-4.46Zm0,7.12c-1.49,0-2.66-1.21-2.66-2.66s1.19-2.66,2.66-2.66,2.66,1.19,2.66,2.66-1.15,2.66-2.66,2.66Zm0-4.46c-.99,0-1.79.8-1.79,1.79s.81,1.79,1.79,1.79,1.78-.82,1.78-1.79-.79-1.79-1.78-1.79Zm0-2.66c-2.46,0-4.46,2-4.46,4.46,0,.83.24,1.64.67,2.33l3.86,6.22,3.75-6.27c.42-.68.64-1.47.64-2.28,0-2.46-2-4.46-4.46-4.46Zm0,7.12c-1.49,0-2.66-1.21-2.66-2.66s1.19-2.66,2.66-2.66,2.66,1.19,2.66,2.66-1.15,2.66-2.66,2.66Zm0-4.46c-.99,0-1.79.8-1.79,1.79s.81,1.79,1.79,1.79,1.78-.82,1.78-1.79-.79-1.79-1.78-1.79Zm0-2.66c-2.46,0-4.46,2-4.46,4.46,0,.83.24,1.64.67,2.33l3.86,6.22,3.75-6.27c.42-.68.64-1.47.64-2.28,0-2.46-2-4.46-4.46-4.46Zm0,7.12c-1.49,0-2.66-1.21-2.66-2.66s1.19-2.66,2.66-2.66,2.66,1.19,2.66,2.66-1.15,2.66-2.66,2.66Zm0-4.46c-.99,0-1.79.8-1.79,1.79s.81,1.79,1.79,1.79,1.78-.82,1.78-1.79-.79-1.79-1.78-1.79Z"/></g><text class="uuid-d57e28e0-9ff1-449d-a759-84f3c3f4417a" transform="translate(700.55 129.21)"><tspan x="0" y="0">Ofce 1618, The binary tower, Business bay, PO.BOX 418125, Dubai, UAE</tspan></text></g><text class="uuid-cb5e16dd-f28f-4549-bde9-a815b0bc52b0" transform="translate(701.48 106.86)"><tspan x="0" y="0">+971 45545232</tspan></text><g><path class="uuid-f0e80ad1-ee68-4d0b-b482-e848ae015918" d="m679.03,92h16.61v16.61c0,1.54-1.25,2.8-2.8,2.8h-16.61v-16.61c0-1.54,1.25-2.8,2.8-2.8Z"/><path class="uuid-4439abc0-d617-4de3-8d69-206c6a9c7e1d" d="m690.48,103.98c-.16-.18-.44-.18-.61,0l-.31.3,2.44,2.44.31-.31c.16-.16.16-.43,0-.61l-1.84-1.82Zm-2.75,1.36c-.47,0-.95-.18-1.3-.53l-3.6-3.61c-.7-.7-.73-1.81-.09-2.53l-2.43-2.43c-1.24,1.51-1.17,3.72.24,5.12l5.72,5.72c1.42,1.42,3.63,1.5,5.12.25l-2.43-2.44c-.36.31-.78.46-1.23.46Zm-4.07-7.6c.16-.16.16-.43,0-.61l-1.84-1.82c-.16-.16-.44-.16-.61,0l-.31.3,2.44,2.44.31-.31Z"/></g></g><text class="uuid-53660be8-1492-4ec1-891e-ee2caa4ada44" transform="translate(137.03 113.9)"><tspan x="0" y="0">Nassif</tspan></text><text class="uuid-33989f2e-f260-4f51-aca4-cf5d60d95314" transform="translate(138.12 136.17)"><tspan x="0" y="0">Founder &amp; CEO</tspan></text><g><text class="uuid-25073b3d-af5d-4d8f-85f0-09e4f6860c54" transform="translate(356.69 103.97)"><tspan x="0" y="0">+971 545542020</tspan></text><g><path class="uuid-f0e80ad1-ee68-4d0b-b482-e848ae015918" d="m335.05,89.57h15.99v15.99c0,1.54-1.25,2.8-2.8,2.8h-15.99v-15.99c0-1.54,1.25-2.8,2.8-2.8Z"/><path class="uuid-4439abc0-d617-4de3-8d69-206c6a9c7e1d" d="m338.03,99.12c0-1.92,0-3.83,0-5.75,0-.17.02-.36.07-.52.16-.51.55-.74,1.05-.82.11-.02.21-.02.32-.02,1.42,0,2.85,0,4.27,0,.19,0,.39.03.57.09.53.17.8.57.82,1.16,0,.05,0,.09,0,.14,0,3.81,0,7.63,0,11.44,0,.16-.01.33-.05.49-.12.5-.48.76-.96.87-.12.03-.24.04-.36.04-1.45,0-2.91,0-4.36,0-.18,0-.37-.03-.55-.09-.55-.18-.82-.6-.82-1.23,0-.77,0-1.53,0-2.3,0-1.17,0-2.34,0-3.51Zm.77-5.49v10.54h5.58v-10.54h-5.58Zm2.78,11c-.3,0-.54.25-.53.54,0,.3.25.54.54.54.3,0,.54-.25.53-.55,0-.3-.25-.54-.55-.53Zm0-11.65c.21,0,.42,0,.63,0,.12,0,.17-.05.17-.15,0-.11-.05-.16-.17-.16-.42,0-.84,0-1.26,0-.12,0-.17.05-.17.16,0,.11.05.16.17.16.21,0,.42,0,.63,0Zm-1.09-.2s-.09-.08-.13-.07c-.04,0-.1.07-.11.11-.01.07.04.12.12.12.08,0,.11-.05.12-.16Z"/></g></g><g><text class="uuid-25073b3d-af5d-4d8f-85f0-09e4f6860c54" transform="translate(356.69 129.43)"><tspan x="0" y="0">Nassif@theprofoundproperties.com</tspan></text><g><path class="uuid-f0e80ad1-ee68-4d0b-b482-e848ae015918" d="m335.05,116.56h15.99v15.99c0,1.54-1.25,2.8-2.8,2.8h-15.99v-15.99c0-1.54,1.25-2.8,2.8-2.8Z"/><path class="uuid-4439abc0-d617-4de3-8d69-206c6a9c7e1d" d="m336.76,124.41l.61.62v-1.23l-.61.61Zm-.16.95v5.88l2.95-2.93-2.95-2.95Zm1.55-5.26v5.71l2.1,2.11h2.78l2.11-2.11v-5.71h-6.99Zm5.04,4.65c-.3,0-.57-.11-.77-.3-.22.19-.49.3-.78.3-.64,0-1.16-.51-1.16-1.16s.53-1.16,1.16-1.16,1.16.53,1.16,1.16h0c.01.24.2.39.39.39.22,0,.39-.18.39-.39,0-1.07-.88-1.93-1.95-1.93s-1.93.87-1.93,1.93c0,.66.34,1.28.89,1.64.58.36,1.3.41,1.96.09.19-.08.42,0,.51.19.09.2,0,.43-.19.51-.92.43-1.91.38-2.7-.14-.78-.51-1.26-1.37-1.26-2.3,0-1.5,1.22-2.72,2.72-2.72s2.72,1.22,2.72,2.72c0,.65-.51,1.16-1.16,1.16Zm-1.55-1.55c-.22,0-.38.18-.38.39s.16.39.38.39c.2,0,.35-.15.39-.32-.01-.04-.01-.08,0-.11-.03-.19-.19-.35-.39-.35Zm1.39,5.49h-2.78l-3.1,3.11h8.99l-3.11-3.11Zm2.88-4.88v1.23l.62-.62-.62-.61Zm-2.16,4.5l2.95,2.93v-5.88l-2.95,2.95Zm0,0l2.95,2.93v-5.88l-2.95,2.95Zm2.16-4.5v1.23l.62-.62-.62-.61Zm-5.66,4.88l-3.1,3.11h8.99l-3.11-3.11h-2.78Zm2.78-.77l2.11-2.11v-5.71h-6.99v5.71l2.1,2.11h2.78Zm-4.11-4.33c0-1.5,1.22-2.72,2.72-2.72s2.72,1.22,2.72,2.72c0,.65-.51,1.16-1.16,1.16-.3,0-.57-.11-.77-.3-.22.19-.49.3-.78.3-.64,0-1.16-.51-1.16-1.16s.53-1.16,1.16-1.16,1.16.53,1.16,1.16h0c.01.24.2.39.39.39.22,0,.39-.18.39-.39,0-1.07-.88-1.93-1.95-1.93s-1.93.87-1.93,1.93c0,.66.34,1.28.89,1.64.58.36,1.3.41,1.96.09.19-.08.42,0,.51.19.09.2,0,.43-.19.51-.92.43-1.91.38-2.7-.14-.78-.51-1.26-1.37-1.26-2.3Zm2.72-.39c-.22,0-.38.18-.38.39s.16.39.38.39c.2,0,.35-.15.39-.32-.01-.04-.01-.08,0-.11-.03-.19-.19-.35-.39-.35Zm-5.04,2.16v5.88l2.95-2.93-2.95-2.95Zm.77-1.55l-.61.61.61.62v-1.23Zm9.33,7.44v-5.88l-2.95,2.95,2.95,2.93Zm-.78-7.44v1.23l.62-.62-.62-.61Zm-5.66,4.88l-3.1,3.11h8.99l-3.11-3.11h-2.78Zm2.78-.77l2.11-2.11v-5.71h-6.99v5.71l2.1,2.11h2.78Zm-4.11-4.33c0-1.5,1.22-2.72,2.72-2.72s2.72,1.22,2.72,2.72c0,.65-.51,1.16-1.16,1.16-.3,0-.57-.11-.77-.3-.22.19-.49.3-.78.3-.64,0-1.16-.51-1.16-1.16s.53-1.16,1.16-1.16,1.16.53,1.16,1.16h0c.01.24.2.39.39.39.22,0,.39-.18.39-.39,0-1.07-.88-1.93-1.95-1.93s-1.93.87-1.93,1.93c0,.66.34,1.28.89,1.64.58.36,1.3.41,1.96.09.19-.08.42,0,.51.19.09.2,0,.43-.19.51-.92.43-1.91.38-2.7-.14-.78-.51-1.26-1.37-1.26-2.3Zm2.72-.39c-.22,0-.38.18-.38.39s.16.39.38.39c.2,0,.35-.15.39-.32-.01-.04-.01-.08,0-.11-.03-.19-.19-.35-.39-.35Zm-5.04,2.16v5.88l2.95-2.93-2.95-2.95Zm.77-1.55l-.61.61.61.62v-1.23Z"/></g></g><line class="uuid-7421927e-ee82-4e44-8307-0606d46f7d38" x1="308.68" y1="128.84" x2="308.68" y2="91.36"/><line class="uuid-7421927e-ee82-4e44-8307-0606d46f7d38" x1="651.32" y1="132.6" x2="651.32" y2="95.13"/></svg>